<svg width="17" height="17" viewBox="0 0 17 17" fill="none" xmlns="http://www.w3.org/2000/svg">
<rect width="17" height="17" rx="3" fill="#2B2538"/>
<path d="M5.4 13C4.74 13 4.175 12.7797 3.705 12.3391C3.235 11.8984 3 11.3688 3 10.75V6.25C3 5.63125 3.235 5.10156 3.705 4.66094C4.175 4.22031 4.74 4 5.4 4H12.6C13.26 4 13.825 4.22031 14.295 4.66094C14.765 5.10156 15 5.63125 15 6.25V10.75C15 11.3688 14.765 11.8984 14.295 12.3391C13.825 12.7797 13.26 13 12.6 13H5.4ZM5.4 6.25H12.6C12.82 6.25 13.03 6.27344 13.23 6.32031C13.43 6.36719 13.62 6.44219 13.8 6.54531V6.25C13.8 5.94062 13.6826 5.67587 13.4478 5.45575C13.213 5.23562 12.9304 5.12538 12.6 5.125H5.4C5.07 5.125 4.7876 5.23525 4.5528 5.45575C4.318 5.67625 4.2004 5.941 4.2 6.25V6.54531C4.38 6.44219 4.57 6.36719 4.77 6.32031C4.97 6.27344 5.18 6.25 5.4 6.25ZM4.29 8.07812L10.965 9.59687C11.055 9.61562 11.145 9.61562 11.235 9.59687C11.325 9.57812 11.41 9.54063 11.49 9.48438L13.575 7.85313C13.465 7.7125 13.325 7.59775 13.155 7.50887C12.985 7.42 12.8 7.37538 12.6 7.375H5.4C5.14 7.375 4.9126 7.43838 4.7178 7.56513C4.523 7.69188 4.3804 7.86287 4.29 8.07812Z" fill="#8A898E"/>
</svg>
