<svg width="200" height="200" viewBox="0 0 200 200" fill="none" xmlns="http://www.w3.org/2000/svg">
<path d="M100 200C155.228 200 200 155.228 200 100C200 44.7715 155.228 0 100 0C44.7715 0 0 44.7715 0 100C0 155.228 44.7715 200 100 200Z" fill="#F3BA2F"/>
<path fill-rule="evenodd" clip-rule="evenodd" d="M125.936 110.632L141.02 125.673L100.015 166.636L59.0525 125.673L74.137 110.632L100.015 136.51L125.936 110.632ZM100.015 84.7111L115.316 100.012L100.015 115.314L84.7569 100.056V100.012L87.4444 97.3249L88.7448 96.0245L100.015 84.7111ZM48.4327 84.9278L63.5172 100.012L48.4327 115.054L33.3481 99.969L48.4327 84.9278ZM151.597 84.9278L166.681 100.012L151.597 115.054L136.512 99.969L151.597 84.9278ZM100.015 33.3457L140.977 74.308L125.893 89.3925L100.015 63.4714L74.137 89.3492L59.0525 74.308L100.015 33.3457Z" fill="white"/>
</svg>
