<svg width="30" height="30" viewBox="0 0 30 30" fill="none" xmlns="http://www.w3.org/2000/svg">
<rect width="30" height="30" rx="5" fill="#2B2538"/>
<path d="M15 7C13.9494 7 12.9091 7.20693 11.9385 7.60896C10.9679 8.011 10.086 8.60028 9.34315 9.34315C7.84285 10.8434 7 12.8783 7 15C7 17.1217 7.84285 19.1566 9.34315 20.6569C10.086 21.3997 10.9679 21.989 11.9385 22.391C12.9091 22.7931 13.9494 23 15 23C17.1217 23 19.1566 22.1571 20.6569 20.6569C22.1571 19.1566 23 17.1217 23 15C23 13.9494 22.7931 12.9091 22.391 11.9385C21.989 10.9679 21.3997 10.086 20.6569 9.34315C19.914 8.60028 19.0321 8.011 18.0615 7.60896C17.0909 7.20693 16.0506 7 15 7ZM18.36 18.36L14.2 15.8V11H15.4V15.16L19 17.32L18.36 18.36Z" fill="white"/>
</svg>
