<svg width="16" height="17" viewBox="0 0 16 17" fill="none" xmlns="http://www.w3.org/2000/svg">
<path d="M7.99991 1.233C3.98641 1.233 0.73291 4.4865 0.73291 8.5C0.73291 12.5135 3.98641 15.767 7.99991 15.767C12.0134 15.767 15.2669 12.5135 15.2669 8.5C15.2669 4.4865 12.0134 1.233 7.99991 1.233ZM8.62741 12.44V13.4635H7.64841V12.4515C6.04191 12.2315 5.33841 10.9115 5.33841 10.9115L6.33841 10.075C6.33841 10.075 6.97691 11.1865 8.13191 11.1865C8.76991 11.1865 9.25391 10.845 9.25391 10.2615C9.25391 8.8975 5.57891 9.063 5.57891 6.5325C5.57891 5.4325 6.44891 4.64 7.64791 4.4525V3.43H8.62691V4.4525C9.46291 4.5625 10.4529 5.0025 10.4529 5.949V6.675H9.15491V6.323C9.15491 5.96 8.69241 5.718 8.17491 5.718C7.51491 5.718 7.03141 6.048 7.03141 6.51C7.03141 7.907 10.7064 7.566 10.7064 10.2175C10.7064 11.3075 9.89241 12.2525 8.62741 12.44Z" fill="black"/>
</svg>
