<svg width="14" height="15" viewBox="0 0 14 15" fill="none" xmlns="http://www.w3.org/2000/svg">
<path d="M0.875 2.25C0.875 1.78587 1.05937 1.34075 1.38756 1.01256C1.71575 0.684374 2.16087 0.5 2.625 0.5L7.875 0.5C8.33913 0.5 8.78425 0.684374 9.11244 1.01256C9.44063 1.34075 9.625 1.78587 9.625 2.25V9.25C10.0891 9.25 10.5342 9.43437 10.8624 9.76256C11.1906 10.0908 11.375 10.5359 11.375 11V11.4375C11.375 11.5535 11.4211 11.6648 11.5031 11.7469C11.5852 11.8289 11.6965 11.875 11.8125 11.875C11.9285 11.875 12.0398 11.8289 12.1219 11.7469C12.2039 11.6648 12.25 11.5535 12.25 11.4375V7.5H11.8125C11.6965 7.5 11.5852 7.45391 11.5031 7.37186C11.4211 7.28981 11.375 7.17853 11.375 7.0625V4.32812C11.375 4.21209 11.4211 4.10081 11.5031 4.01877C11.5852 3.93672 11.6965 3.89062 11.8125 3.89062H13.1206C13.111 3.47412 13.0742 3.10838 12.9447 2.82138C12.8754 2.6545 12.7546 2.5141 12.6 2.42062C12.439 2.32437 12.194 2.25 11.8125 2.25C11.6965 2.25 11.5852 2.20391 11.5031 2.12186C11.4211 2.03981 11.375 1.92853 11.375 1.8125C11.375 1.69647 11.4211 1.58519 11.5031 1.50314C11.5852 1.42109 11.6965 1.375 11.8125 1.375C12.306 1.37383 12.7178 1.47183 13.048 1.669C13.3831 1.8685 13.6027 2.15113 13.7428 2.46263C14.0009 3.03575 14 3.7445 14 4.2835V7.0625C14 7.17853 13.9539 7.28981 13.8719 7.37186C13.7898 7.45391 13.6785 7.5 13.5625 7.5H13.125V11.4375C13.125 11.7856 12.9867 12.1194 12.7406 12.3656C12.4944 12.6117 12.1606 12.75 11.8125 12.75C11.4644 12.75 11.1306 12.6117 10.8844 12.3656C10.6383 12.1194 10.5 11.7856 10.5 11.4375V11C10.5 10.7679 10.4078 10.5454 10.2437 10.3813C10.0796 10.2172 9.85706 10.125 9.625 10.125V13.625H10.0625C10.1785 13.625 10.2898 13.6711 10.3719 13.7531C10.4539 13.8352 10.5 13.9465 10.5 14.0625C10.5 14.1785 10.4539 14.2898 10.3719 14.3719C10.2898 14.4539 10.1785 14.5 10.0625 14.5H0.4375C0.321468 14.5 0.210188 14.4539 0.128141 14.3719C0.0460936 14.2898 0 14.1785 0 14.0625C0 13.9465 0.0460936 13.8352 0.128141 13.7531C0.210188 13.6711 0.321468 13.625 0.4375 13.625H0.875V2.25ZM3.0625 2.25C2.94647 2.25 2.83519 2.29609 2.75314 2.37814C2.67109 2.46019 2.625 2.57147 2.625 2.6875V7.0625C2.625 7.17853 2.67109 7.28981 2.75314 7.37186C2.83519 7.45391 2.94647 7.5 3.0625 7.5H7.4375C7.55353 7.5 7.66481 7.45391 7.74686 7.37186C7.82891 7.28981 7.875 7.17853 7.875 7.0625V2.6875C7.875 2.57147 7.82891 2.46019 7.74686 2.37814C7.66481 2.29609 7.55353 2.25 7.4375 2.25H3.0625Z" fill="#8A898E"/>
</svg>
