<?xml version="1.0" encoding="UTF-8"?>
<svg id="Layer_1" data-name="Layer 1" xmlns="http://www.w3.org/2000/svg" xmlns:xlink="http://www.w3.org/1999/xlink" viewBox="0 0 240 40">
  <defs>
    <style>
      .cls-1 {
        fill: #0b02cf;
      }

      .cls-1, .cls-2, .cls-3, .cls-4, .cls-5, .cls-6, .cls-7, .cls-8, .cls-9, .cls-10 {
        stroke-width: 0px;
      }

      .cls-2 {
        fill: url(#linear-gradient);
      }

      .cls-3 {
        fill: #00dadd;
      }

      .cls-4 {
        fill: none;
      }

      .cls-5 {
        fill: url(#linear-gradient-2);
      }

      .cls-6 {
        fill: #1baf00;
      }

      .cls-7 {
        fill: url(#linear-gradient-3);
      }

      .cls-8 {
        fill: #fff;
      }

      .cls-9 {
        fill: #e4e200;
      }

      .cls-10 {
        fill: url(#linear-gradient-4);
      }
    </style>
    <linearGradient id="linear-gradient" x1="70.64" y1="11.26" x2="81.46" y2="11.26" gradientUnits="userSpaceOnUse">
      <stop offset="0" stop-color="#1baf00"/>
      <stop offset=".36" stop-color="#aad300"/>
      <stop offset=".52" stop-color="#e5e300"/>
    </linearGradient>
    <linearGradient id="linear-gradient-2" x1="72.3" y1="27.31" x2="90.26" y2="27.31" gradientUnits="userSpaceOnUse">
      <stop offset=".11" stop-color="#e4e200"/>
      <stop offset=".2" stop-color="#e5dd00"/>
      <stop offset=".29" stop-color="#e9d000"/>
      <stop offset=".38" stop-color="#efbb00"/>
      <stop offset=".48" stop-color="#f89d00"/>
      <stop offset=".53" stop-color="#ff8a00"/>
    </linearGradient>
    <linearGradient id="linear-gradient-3" x1="68.97" y1="12.69" x2="51.02" y2="12.69" gradientUnits="userSpaceOnUse">
      <stop offset=".17" stop-color="#00dadd"/>
      <stop offset=".2" stop-color="#0dcfde"/>
      <stop offset=".27" stop-color="#31b2e1"/>
      <stop offset=".36" stop-color="#6a85e6"/>
      <stop offset=".46" stop-color="#b946ee"/>
      <stop offset=".52" stop-color="#eb1ff3"/>
    </linearGradient>
    <linearGradient id="linear-gradient-4" x1="70.64" y1="28.74" x2="59.81" y2="28.74" gradientUnits="userSpaceOnUse">
      <stop offset="0" stop-color="#0b02cf"/>
      <stop offset=".63" stop-color="#00dadd"/>
    </linearGradient>
  </defs>
  <g>
    <path class="cls-1" d="M55.39,18.59c-.09.94-.09,1.88,0,2.82l-1.41-1.41-.98.98c-.04-.65-.04-1.31,0-1.97.13-2.28.69-4.53,1.69-6.63l1.78,1.78c-.58,1.42-.95,2.91-1.09,4.42Z"/>
    <path class="cls-6" d="M81.46,14.17l4.16,4.16.26.26,1.41,1.41,1.67-1.67,1.67-1.67,1.67-1.67-10.83-10.83-1.08,1.08c-.83-.55-1.69-1.02-2.58-1.41-1.06-.47-2.15-.83-3.26-1.08-.47-.11-.94-.19-1.41-.26-.5-.07-1.01-.12-1.51-.15-.65-.04-1.31-.04-1.97,0-2.28.13-4.53.69-6.63,1.69-.73.35-1.44.75-2.13,1.2-.65.43-1.28.91-1.89,1.44l1.67,1.67,2.47,2.47,7.49,7.49,1.67-1.67,1.67-1.67,5.83-5.83.8-.8.86-.86,5.33,5.33,2.17,2.17-1.09,1.09-.58.58-2.49-2.49-1.67-1.67-1.67-1.67-5.83,5.83-1.67,1.67-1.67,1.67,1.67,1.67,4.16,4.16,1.67,1.67,4.14,4.14.03.03,2.97,2.97h3.33l-4.63-4.63-.25-.25-1.71-1.7-2.21-2.21-1.67-1.67-4.16-4.16,5.83-5.83ZM78.13,7.51l-1.67,1.67-4.16,4.16-1.67,1.67-8.04-8.04c.71-.44,1.45-.81,2.21-1.13,1.42-.58,2.91-.95,4.42-1.09.94-.09,1.88-.09,2.82,0,.15.01.31.03.46.05,1.35.16,2.68.51,3.95,1.03.76.31,1.5.69,2.22,1.13l-.54.54Z"/>
    <path class="cls-1" d="M80.6,31.63l-2.47-2.47-1.67-1.67-5.83-5.83-1.67,1.67-1.67,1.67-4.16,4.16-1.67,1.67-.8.8-.86.86-1.67-1.67-1.67-1.67-2-2-2.17-2.17,1.09-1.09.58-.58,5.83,5.83,1.67-1.67,4.16-4.16,1.67-1.67,1.67-1.67-14.62-14.62h-3.33l4.88,4.88,1.71,1.7,2.21,2.21,5.83,5.83-1.67,1.67-4.16,4.16-5.83-5.83-.98.98-.68.68-1.67,1.67-1.67,1.67,1.67,1.67,4.16,4.16,1.67,1.67,1.67,1.67,1.67,1.67,1.08-1.08c.83.55,1.69,1.02,2.58,1.41,1.06.47,2.15.83,3.26,1.08.47.11.94.19,1.41.26.5.07,1.01.12,1.51.15.65.04,1.31.04,1.97,0,2.28-.13,4.53-.69,6.63-1.69.73-.35,1.44-.75,2.13-1.2.65-.43,1.28-.91,1.89-1.44l-1.67-1.67ZM76.47,34.16c-1.42.58-2.91.95-4.42,1.09-.94.09-1.88.09-2.82,0-.15-.01-.31-.03-.46-.05-1.35-.16-2.68-.51-3.95-1.03-.76-.31-1.5-.69-2.22-1.13l8.04-8.04,8.04,8.04c-.71.44-1.45.81-2.21,1.13Z"/>
    <path class="cls-6" d="M88.28,20.98c-.13,2.28-.69,4.53-1.69,6.63l-1.78-1.78c.58-1.42.95-2.91,1.09-4.42.09-.94.09-1.88,0-2.82l1.41,1.41.98-.98c.04.65.04,1.31,0,1.97Z"/>
    <polygon class="cls-2" points="70.64 15 81.46 4.18 81.46 7.51 70.64 18.33 70.64 15"/>
    <polygon class="cls-5" points="75.64 20 72.3 20 86.93 34.62 90.26 34.62 75.64 20"/>
    <polygon class="cls-7" points="51.02 5.38 54.35 5.38 68.97 20 65.64 20 51.02 5.38"/>
    <polygon class="cls-10" points="59.81 35.82 59.81 32.49 70.64 21.67 70.64 25 59.81 35.82"/>
    <polygon class="cls-3" points="68.97 20 65.64 20 59.81 25.83 53.98 20 48.99 25 59.81 35.82 59.81 32.49 52.32 25 53.98 23.33 59.81 29.16 68.97 20"/>
    <polygon class="cls-9" points="81.46 4.18 81.46 7.51 88.96 15 87.29 16.67 81.46 10.84 72.3 20 75.64 20 81.46 14.17 87.29 20 92.29 15 81.46 4.18"/>
    <path class="cls-4" d="M55.39,18.59c-.09.94-.09,1.88,0,2.82l-1.41-1.41-.98.98c-.04-.65-.04-1.31,0-1.97.13-2.28.69-4.53,1.69-6.63l1.78,1.78c-.58,1.42-.95,2.91-1.09,4.42Z"/>
    <path class="cls-4" d="M80.6,31.63l-2.47-2.47-1.67-1.67-5.83-5.83-1.67,1.67-1.67,1.67-4.16,4.16-1.67,1.67-.8.8-.86.86-1.67-1.67-1.67-1.67-2-2-2.17-2.17,1.09-1.09.58-.58,5.83,5.83,1.67-1.67,4.16-4.16,1.67-1.67,1.67-1.67-14.62-14.62h-3.33l4.88,4.88,1.71,1.7,2.21,2.21,5.83,5.83-1.67,1.67-4.16,4.16-5.83-5.83-.98.98-.68.68-1.67,1.67-1.67,1.67,1.67,1.67,4.16,4.16,1.67,1.67,1.67,1.67,1.67,1.67,1.08-1.08c.83.55,1.69,1.02,2.58,1.41,1.06.47,2.15.83,3.26,1.08.47.11.94.19,1.41.26.5.07,1.01.12,1.51.15.65.04,1.31.04,1.97,0,2.28-.13,4.53-.69,6.63-1.69.73-.35,1.44-.75,2.13-1.2.65-.43,1.28-.91,1.89-1.44l-1.67-1.67ZM76.47,34.16c-1.42.58-2.91.95-4.42,1.09-.94.09-1.88.09-2.82,0-.15-.01-.31-.03-.46-.05-1.35-.16-2.68-.51-3.95-1.03-.76-.31-1.5-.69-2.22-1.13l8.04-8.04,8.04,8.04c-.71.44-1.45.81-2.21,1.13Z"/>
    <path class="cls-4" d="M88.28,20.98c-.13,2.28-.69,4.53-1.69,6.63l-1.78-1.78c.58-1.42.95-2.91,1.09-4.42.09-.94.09-1.88,0-2.82l1.41,1.41.98-.98c.04.65.04,1.31,0,1.97Z"/>
    <path class="cls-4" d="M81.46,14.17l4.16,4.16.26.26,1.41,1.41,1.67-1.67,1.67-1.67,1.67-1.67-10.83-10.83-1.08,1.08c-.83-.55-1.69-1.02-2.58-1.41-1.06-.47-2.15-.83-3.26-1.08-.47-.11-.94-.19-1.41-.26-.5-.07-1.01-.12-1.51-.15-.65-.04-1.31-.04-1.97,0-2.28.13-4.53.69-6.63,1.69-.73.35-1.44.75-2.13,1.2-.65.43-1.28.91-1.89,1.44l1.67,1.67,2.47,2.47,7.49,7.49,1.67-1.67,1.67-1.67,5.83-5.83.8-.8.86-.86,5.33,5.33,2.17,2.17-1.09,1.09-.58.58-2.49-2.49-1.67-1.67-1.67-1.67-5.83,5.83-1.67,1.67-1.67,1.67,1.67,1.67,4.16,4.16,1.67,1.67,4.14,4.14.03.03,2.97,2.97h3.33l-4.63-4.63-.25-.25-1.71-1.7-2.21-2.21-1.67-1.67-4.16-4.16,5.83-5.83ZM78.13,7.51l-1.67,1.67-4.16,4.16-1.67,1.67-8.04-8.04c.71-.44,1.45-.81,2.21-1.13,1.42-.58,2.91-.95,4.42-1.09.94-.09,1.88-.09,2.82,0,.15.01.31.03.46.05,1.35.16,2.68.51,3.95,1.03.76.31,1.5.69,2.22,1.13l-.54.54Z"/>
  </g>
  <g>
    <path class="cls-8" d="M114.33,10.45c1.8.81,2.83,2.26,3.22,4.6.15.9.21,2.08.21,4.75,0,4.81-.18,6.14-1.02,7.64-.72,1.26-2.04,2.13-3.85,2.5-.81.18-2.41.27-4.36.27-2.98,0-4.48-.24-5.71-.9-1.59-.87-2.41-2.17-2.77-4.39-.15-.93-.18-1.89-.18-4.39,0-5.17.21-6.65,1.14-8.12.75-1.17,2.08-2.02,3.73-2.35.78-.18,2.44-.27,4.24-.27,2.86,0,4.18.18,5.35.66ZM103.77,20.83c0,3.52.15,4.42.87,5.26.57.66,1.47.81,4.54.81s3.76-.33,4.27-1.77c.36-.99.39-1.5.39-5.26,0-3.16,0-3.25-.15-4.18-.18-1.17-.66-1.92-1.41-2.26-.66-.27-1.41-.33-3.67-.33-2.44,0-3.25.15-3.88.78-.66.63-.93,1.68-.96,3.67v3.28Z"/>
    <path class="cls-8" d="M144.04,30.03h-3.79v-10.95c0-1.44.03-1.83.15-4.45l.06-1.47h-.12l-.45,1.38c-.84,2.62-1.05,3.31-1.38,4.18l-4.42,11.31h-3.46l-4.45-11.22c-.39-.96-.6-1.59-1.44-4.18l-.45-1.38h-.12l.09,1.44c.12,2.53.15,3.16.15,4.39v10.95h-3.79V9.97h6.2l3.58,9.29c.36.93.57,1.59,1.41,4.15l.45,1.41h.12l.45-1.38c.78-2.53,1.02-3.22,1.35-4.15l3.55-9.32h6.32v20.06Z"/>
    <path class="cls-8" d="M151.24,26.18l-1.23,3.85h-4.03l6.68-20.06h5.68l6.8,20.06h-3.94l-1.29-3.85h-8.66ZM155.57,12.92l-3.43,10.41h6.89l-3.46-10.41Z"/>
    <path class="cls-8" d="M178.85,19.68l6.41,10.35h-4.45l-2.89-4.81c-.66-1.14-.87-1.53-1.68-3.07l-.42-.78h-.06l-.66,1.26c-.36.66-.75,1.38-1.47,2.59l-2.92,4.81h-4.57l6.59-10.35-6.11-9.71h4.51l2.71,4.48c.72,1.23.84,1.44,1.89,3.49h.06l.39-.72c.66-1.26.87-1.65,1.53-2.77l2.68-4.48h4.48l-6.01,9.71Z"/>
  </g>
</svg>