<svg width="45" height="45" viewBox="0 0 45 45" fill="none" xmlns="http://www.w3.org/2000/svg">
<path d="M7.40999 21.28C7.31999 22.22 7.31999 23.16 7.40999 24.1L5.99999 22.69L5.01999 23.67C4.97999 23.02 4.97999 22.36 5.01999 21.7C5.14999 19.42 5.70999 17.17 6.70999 15.07L8.48999 16.85C7.90999 18.27 7.53999 19.76 7.39999 21.27L7.40999 21.28Z" fill="#0B02CF"/>
<path d="M33.48 16.86L37.64 21.02L37.9 21.28L39.31 22.69L40.98 21.02L42.65 19.35L44.32 17.68L33.49 6.85L32.41 7.93C31.58 7.38 30.72 6.91 29.83 6.52C28.77 6.05 27.68 5.69 26.57 5.44C26.1 5.33 25.63 5.25 25.16 5.18C24.66 5.11 24.15 5.06 23.65 5.03C23 4.99 22.34 4.99 21.68 5.03C19.4 5.16 17.15 5.72 15.05 6.72C14.32 7.07 13.61 7.47 12.92 7.92C12.27 8.35 11.64 8.83 11.03 9.36L12.7 11.03L15.17 13.5L22.66 20.99L24.33 19.32L26 17.65L31.83 11.82L32.63 11.02L33.49 10.16L38.82 15.49L40.99 17.66L39.9 18.75L39.32 19.33L36.83 16.84L35.16 15.17L33.49 13.5L27.66 19.33L25.99 21L24.32 22.67L25.99 24.34L30.15 28.5L31.82 30.17L35.96 34.31L35.99 34.34L38.96 37.31H42.29L37.66 32.68L37.41 32.43L35.7 30.73L33.49 28.52L31.82 26.85L27.66 22.69L33.49 16.86H33.48ZM30.15 10.2L28.48 11.87L24.32 16.03L22.65 17.7L14.61 9.66C15.32 9.22 16.06 8.85 16.82 8.53C18.24 7.95 19.73 7.58 21.24 7.44C22.18 7.35 23.12 7.35 24.06 7.44C24.21 7.45 24.37 7.47 24.52 7.49C25.87 7.65 27.2 8 28.47 8.52C29.23 8.83 29.97 9.21 30.69 9.65L30.15 10.19V10.2Z" fill="#1BAF00"/>
<path d="M32.62 34.32L30.15 31.85L28.48 30.18L22.65 24.35L20.98 26.02L19.31 27.69L15.15 31.85L13.48 33.52L12.68 34.32L11.82 35.18L10.15 33.51L8.48 31.84L6.48 29.84L4.31 27.67L5.4 26.58L5.98 26L11.81 31.83L13.48 30.16L17.64 26L19.31 24.33L20.98 22.66L6.36 8.04H3.03L7.91 12.92L9.62 14.62L11.83 16.83L17.66 22.66L15.99 24.33L11.83 28.49L6 22.66L5.02 23.64L4.34 24.32L2.67 25.99L1 27.66L2.67 29.33L6.83 33.49L8.5 35.16L10.17 36.83L11.84 38.5L12.92 37.42C13.75 37.97 14.61 38.44 15.5 38.83C16.56 39.3 17.65 39.66 18.76 39.91C19.23 40.02 19.7 40.1 20.17 40.17C20.67 40.24 21.18 40.29 21.68 40.32C22.33 40.36 22.99 40.36 23.65 40.32C25.93 40.19 28.18 39.63 30.28 38.63C31.01 38.28 31.72 37.88 32.41 37.43C33.06 37 33.69 36.52 34.3 35.99L32.63 34.32H32.62ZM28.49 36.85C27.07 37.43 25.58 37.8 24.07 37.94C23.13 38.03 22.19 38.03 21.25 37.94C21.1 37.93 20.94 37.91 20.79 37.89C19.44 37.73 18.11 37.38 16.84 36.86C16.08 36.55 15.34 36.17 14.62 35.73L22.66 27.69L30.7 35.73C29.99 36.17 29.25 36.54 28.49 36.86V36.85Z" fill="#0B02CF"/>
<path d="M40.3 23.67C40.17 25.95 39.61 28.2 38.61 30.3L36.83 28.52C37.41 27.1 37.78 25.61 37.92 24.1C38.01 23.16 38.01 22.22 37.92 21.28L39.33 22.69L40.31 21.71C40.35 22.36 40.35 23.02 40.31 23.68L40.3 23.67Z" fill="#1BAF00"/>
<path d="M22.66 17.69L33.48 6.87V10.2L22.66 21.02V17.69Z" fill="url(#paint0_linear_120_87)"/>
<path d="M27.66 22.69H24.32L38.95 37.31H42.28L27.66 22.69Z" fill="url(#paint1_linear_120_87)"/>
<path d="M3.04001 8.07H6.37001L20.99 22.69H17.66L3.04001 8.07Z" fill="url(#paint2_linear_120_87)"/>
<path d="M11.83 38.51V35.18L22.66 24.36V27.69L11.83 38.51Z" fill="url(#paint3_linear_120_87)"/>
<path d="M20.99 22.69H17.66L11.83 28.52L6.00001 22.69L1.01001 27.69L11.83 38.51V35.18L4.34001 27.69L6.00001 26.02L11.83 31.85L20.99 22.69Z" fill="#00DADD"/>
<path d="M33.48 6.87V10.2L40.98 17.69L39.31 19.36L33.48 13.53L24.32 22.69H27.66L33.48 16.86L39.31 22.69L44.31 17.69L33.48 6.87Z" fill="#E4E200"/>
<defs>
<linearGradient id="paint0_linear_120_87" x1="22.66" y1="13.95" x2="33.48" y2="13.95" gradientUnits="userSpaceOnUse">
<stop stop-color="#1BAF00"/>
<stop offset="0.36" stop-color="#AAD300"/>
<stop offset="0.52" stop-color="#E5E300"/>
</linearGradient>
<linearGradient id="paint1_linear_120_87" x1="24.32" y1="30" x2="42.28" y2="30" gradientUnits="userSpaceOnUse">
<stop offset="0.11" stop-color="#E4E200"/>
<stop offset="0.2" stop-color="#E5DD00"/>
<stop offset="0.29" stop-color="#E9D000"/>
<stop offset="0.38" stop-color="#EFBB00"/>
<stop offset="0.48" stop-color="#F89D00"/>
<stop offset="0.53" stop-color="#FF8A00"/>
</linearGradient>
<linearGradient id="paint2_linear_120_87" x1="20.99" y1="15.38" x2="3.04001" y2="15.38" gradientUnits="userSpaceOnUse">
<stop offset="0.17" stop-color="#00DADD"/>
<stop offset="0.2" stop-color="#0DCFDE"/>
<stop offset="0.27" stop-color="#31B2E1"/>
<stop offset="0.36" stop-color="#6A85E6"/>
<stop offset="0.46" stop-color="#B946EE"/>
<stop offset="0.52" stop-color="#EB1FF3"/>
</linearGradient>
<linearGradient id="paint3_linear_120_87" x1="22.66" y1="31.43" x2="11.83" y2="31.43" gradientUnits="userSpaceOnUse">
<stop stop-color="#0B02CF"/>
<stop offset="0.63" stop-color="#00DADD"/>
</linearGradient>
</defs>
</svg>
