<svg width="31" height="31" viewBox="0 0 31 31" fill="none" xmlns="http://www.w3.org/2000/svg">
<path d="M5.43999 14.6867C5.37999 15.3133 5.37999 15.94 5.43999 16.5667L4.49999 15.6267L3.84666 16.28C3.81999 15.8467 3.81999 15.4067 3.84666 14.9667C3.93333 13.4467 4.30666 11.9467 4.97333 10.5467L6.15999 11.7333C5.77333 12.68 5.52666 13.6733 5.43333 14.68L5.43999 14.6867Z" fill="#0B02CF"/>
<path d="M22.82 11.74L25.5933 14.5133L25.7667 14.6867L26.7067 15.6267L27.82 14.5133L28.9333 13.4L30.0467 12.2867L22.8267 5.06667L22.1067 5.78667C21.5533 5.42 20.98 5.10667 20.3867 4.84667C19.68 4.53334 18.9533 4.29334 18.2133 4.12667C17.9 4.05334 17.5867 4 17.2733 3.95334C16.94 3.90667 16.6 3.87334 16.2667 3.85334C15.8333 3.82667 15.3933 3.82667 14.9533 3.85334C13.4333 3.94 11.9333 4.31334 10.5333 4.98C10.0467 5.21334 9.57333 5.48 9.11333 5.78C8.68 6.06667 8.26 6.38667 7.85333 6.74L8.96667 7.85334L10.6133 9.5L15.6067 14.4933L16.72 13.38L17.8333 12.2667L21.72 8.38L22.2533 7.84667L22.8267 7.27334L26.38 10.8267L27.8267 12.2733L27.1 13L26.7133 13.3867L25.0533 11.7267L23.94 10.6133L22.8267 9.5L18.94 13.3867L17.8267 14.5L16.7133 15.6133L17.8267 16.7267L20.6 19.5L21.7133 20.6133L24.4733 23.3733L24.4933 23.3933L26.4733 25.3733H28.6933L25.6067 22.2867L25.44 22.12L24.3 20.9867L22.8267 19.5133L21.7133 18.4L18.94 15.6267L22.8267 11.74H22.82ZM20.6 7.3L19.4867 8.41334L16.7133 11.1867L15.6 12.3L10.24 6.94C10.7133 6.64667 11.2067 6.4 11.7133 6.18667C12.66 5.8 13.6533 5.55334 14.66 5.46C15.2867 5.4 15.9133 5.4 16.54 5.46C16.64 5.46667 16.7467 5.48 16.8467 5.49334C17.7467 5.6 18.6333 5.83334 19.48 6.18C19.9867 6.38667 20.48 6.64 20.96 6.93334L20.6 7.29334V7.3Z" fill="#1BAF00"/>
<path d="M22.2467 23.38L20.6 21.7333L19.4867 20.62L15.6 16.7333L14.4867 17.8467L13.3733 18.96L10.6 21.7333L9.48666 22.8467L8.95332 23.38L8.37999 23.9533L7.26666 22.84L6.15332 21.7267L4.81999 20.3933L3.37332 18.9467L4.09999 18.22L4.48666 17.8333L8.37332 21.72L9.48666 20.6067L12.26 17.8333L13.3733 16.72L14.4867 15.6067L4.73999 5.86H2.51999L5.77332 9.11333L6.91332 10.2467L8.38666 11.72L12.2733 15.6067L11.16 16.72L8.38666 19.4933L4.49999 15.6067L3.84666 16.26L3.39332 16.7133L2.27999 17.8267L1.16666 18.94L2.27999 20.0533L5.05332 22.8267L6.16666 23.94L7.27999 25.0533L8.39332 26.1667L9.11332 25.4467C9.66666 25.8133 10.24 26.1267 10.8333 26.3867C11.54 26.7 12.2667 26.94 13.0067 27.1067C13.32 27.18 13.6333 27.2333 13.9467 27.28C14.28 27.3267 14.62 27.36 14.9533 27.38C15.3867 27.4067 15.8267 27.4067 16.2667 27.38C17.7867 27.2933 19.2867 26.92 20.6867 26.2533C21.1733 26.02 21.6467 25.7533 22.1067 25.4533C22.54 25.1667 22.96 24.8467 23.3667 24.4933L22.2533 23.38H22.2467ZM19.4933 25.0667C18.5467 25.4533 17.5533 25.7 16.5467 25.7933C15.92 25.8533 15.2933 25.8533 14.6667 25.7933C14.5667 25.7867 14.46 25.7733 14.36 25.76C13.46 25.6533 12.5733 25.42 11.7267 25.0733C11.22 24.8667 10.7267 24.6133 10.2467 24.32L15.6067 18.96L20.9667 24.32C20.4933 24.6133 20 24.86 19.4933 25.0733V25.0667Z" fill="#0B02CF"/>
<path d="M27.3666 16.28C27.28 17.8 26.9066 19.3 26.24 20.7L25.0533 19.5133C25.44 18.5667 25.6867 17.5733 25.78 16.5667C25.84 15.94 25.84 15.3133 25.78 14.6867L26.72 15.6267L27.3733 14.9733C27.4 15.4067 27.4 15.8467 27.3733 16.2867L27.3666 16.28Z" fill="#1BAF00"/>
<path d="M15.6067 12.2933L22.82 5.08V7.3L15.6067 14.5133V12.2933Z" fill="url(#paint0_linear_120_88)"/>
<path d="M18.94 15.6267H16.7133L26.4667 25.3733H28.6867L18.94 15.6267Z" fill="url(#paint1_linear_120_88)"/>
<path d="M2.52667 5.88H4.74667L14.4933 15.6267H12.2733L2.52667 5.88Z" fill="url(#paint2_linear_120_88)"/>
<path d="M8.38669 26.1733V23.9533L15.6067 16.74V18.96L8.38669 26.1733Z" fill="url(#paint3_linear_120_88)"/>
<path d="M14.4933 15.6267H12.2733L8.38667 19.5133L4.50001 15.6267L1.17334 18.96L8.38667 26.1733V23.9533L3.39334 18.96L4.50001 17.8467L8.38667 21.7333L14.4933 15.6267Z" fill="#00DADD"/>
<path d="M22.82 5.08V7.3L27.82 12.2933L26.7067 13.4067L22.82 9.52L16.7133 15.6267H18.94L22.82 11.74L26.7067 15.6267L30.04 12.2933L22.82 5.08Z" fill="#E4E200"/>
<defs>
<linearGradient id="paint0_linear_120_88" x1="15.6067" y1="9.8" x2="22.82" y2="9.8" gradientUnits="userSpaceOnUse">
<stop stop-color="#1BAF00"/>
<stop offset="0.36" stop-color="#AAD300"/>
<stop offset="0.52" stop-color="#E5E300"/>
</linearGradient>
<linearGradient id="paint1_linear_120_88" x1="16.7133" y1="20.5" x2="28.6867" y2="20.5" gradientUnits="userSpaceOnUse">
<stop offset="0.11" stop-color="#E4E200"/>
<stop offset="0.2" stop-color="#E5DD00"/>
<stop offset="0.29" stop-color="#E9D000"/>
<stop offset="0.38" stop-color="#EFBB00"/>
<stop offset="0.48" stop-color="#F89D00"/>
<stop offset="0.53" stop-color="#FF8A00"/>
</linearGradient>
<linearGradient id="paint2_linear_120_88" x1="14.4933" y1="10.7533" x2="2.52667" y2="10.7533" gradientUnits="userSpaceOnUse">
<stop offset="0.17" stop-color="#00DADD"/>
<stop offset="0.2" stop-color="#0DCFDE"/>
<stop offset="0.27" stop-color="#31B2E1"/>
<stop offset="0.36" stop-color="#6A85E6"/>
<stop offset="0.46" stop-color="#B946EE"/>
<stop offset="0.52" stop-color="#EB1FF3"/>
</linearGradient>
<linearGradient id="paint3_linear_120_88" x1="15.6067" y1="21.4533" x2="8.38669" y2="21.4533" gradientUnits="userSpaceOnUse">
<stop stop-color="#0B02CF"/>
<stop offset="0.63" stop-color="#00DADD"/>
</linearGradient>
</defs>
</svg>
