<svg width="31" height="31" viewBox="0 0 31 31" fill="none" xmlns="http://www.w3.org/2000/svg">
<rect width="31" height="31" rx="5" fill="#FF0420"/>
<g clip-path="url(#clip0_3_94)">
<path d="M2 15.5C2 8.04416 8.04416 2 15.5 2C22.9558 2 29 8.04416 29 15.5C29 22.9558 22.9558 29 15.5 29C8.04416 29 2 22.9558 2 15.5Z" fill="white"/>
<path d="M15.5 2C8.04416 2 2 8.04416 2 15.5C2 22.9558 8.04416 29 15.5 29C22.9558 29 29 22.9558 29 15.5C29 8.04416 22.9558 2 15.5 2ZM15.5 22.3736V28.011C10.1471 28.011 5.8077 23.6716 5.8077 18.3187C5.8077 12.9658 10.1471 8.62638 15.5 8.62638V2.98901C20.8529 2.98901 25.1923 7.32841 25.1923 12.6813C25.1923 18.0342 20.8529 22.3736 15.5 22.3736ZM20.1483 15.4568V15.5432C18.0994 16.5644 16.5644 18.0994 15.5432 20.1483H15.4568C14.4356 18.0994 12.9006 16.5644 10.8517 15.5432V15.4568C12.9006 14.4356 14.4356 12.9005 15.4568 10.8517H15.5432C16.5644 12.9005 18.0994 14.4356 20.1483 15.4568Z" fill="#FF0420"/>
</g>
<defs>
<clipPath id="clip0_3_94">
<rect width="27" height="27" fill="white" transform="translate(2 2)"/>
</clipPath>
</defs>
</svg>
