<svg width="30" height="30" viewBox="0 0 30 30" fill="none" xmlns="http://www.w3.org/2000/svg">
<rect width="30" height="30" rx="5" fill="#2B2538"/>
<path fill-rule="evenodd" clip-rule="evenodd" d="M16.4983 7.1216C16.1868 7 15.791 7 15.0002 7C14.2095 7 13.8146 7 13.5021 7.1216C13.2966 7.2014 13.1096 7.31903 12.9521 7.46772C12.7946 7.61641 12.6696 7.79323 12.5842 7.988C12.5051 8.1664 12.4748 8.3752 12.4621 8.6784C12.4561 8.898 12.3915 9.11255 12.2742 9.30188C12.157 9.49122 11.991 9.64914 11.7918 9.7608C11.5887 9.86808 11.3603 9.92492 11.1279 9.92603C10.8954 9.92715 10.6664 9.87252 10.4621 9.7672C10.1775 9.6248 9.9712 9.5464 9.76741 9.5208C9.32159 9.46554 8.8708 9.57936 8.51268 9.8376C8.24489 10.0312 8.047 10.3544 7.65205 11C7.25626 11.6456 7.05921 11.968 7.01458 12.284C6.95563 12.7048 7.0769 13.1304 7.35142 13.4672C7.47605 13.6208 7.65205 13.7496 7.92405 13.9112C8.32574 14.1488 8.58342 14.5536 8.58342 15C8.58342 15.4464 8.32574 15.8512 7.92489 16.088C7.65205 16.2504 7.47605 16.3792 7.35058 16.5328C7.21548 16.6994 7.11626 16.8896 7.05861 17.0926C7.00096 17.2957 6.986 17.5075 7.01458 17.716C7.05921 18.0312 7.25626 18.3544 7.65205 19C8.04784 19.6456 8.24489 19.968 8.51268 20.1624C8.86973 20.4208 9.3211 20.5344 9.76741 20.4792C9.9712 20.4536 10.1775 20.3752 10.4621 20.2328C10.6665 20.1273 10.8957 20.0726 11.1283 20.0737C11.3609 20.0749 11.5894 20.1318 11.7927 20.2392C12.2019 20.4632 12.4445 20.8752 12.4621 21.3216C12.4748 21.6256 12.5051 21.8336 12.5842 22.012C12.756 22.404 13.0861 22.716 13.5021 22.8784C13.8137 23 14.2095 23 15.0002 23C15.791 23 16.1868 23 16.4983 22.8784C16.7039 22.7986 16.8908 22.681 17.0484 22.5323C17.2059 22.3836 17.3309 22.2068 17.4162 22.012C17.4954 21.8336 17.5257 21.6256 17.5383 21.3216C17.5552 20.8752 17.7985 20.4624 18.2086 20.2392C18.4118 20.1319 18.6402 20.0751 18.8726 20.074C19.1051 20.0728 19.334 20.1275 19.5383 20.2328C19.823 20.3752 20.0293 20.4536 20.2331 20.4792C20.6794 20.5352 21.1307 20.4208 21.4878 20.1624C21.7556 19.9688 21.9535 19.6456 22.3484 19C22.7442 18.3544 22.9413 18.032 22.9859 17.716C23.0144 17.5074 22.9993 17.2956 22.9415 17.0925C22.8837 16.8895 22.7843 16.6993 22.6491 16.5328C22.5244 16.3792 22.3484 16.2504 22.0764 16.0888C21.6747 15.8512 21.4171 15.4464 21.4171 15C21.4171 14.5536 21.6747 14.1488 22.0756 13.912C22.3484 13.7496 22.5244 13.6208 22.6499 13.4672C22.785 13.3006 22.8842 13.1104 22.9419 12.9074C22.9995 12.7043 23.0145 12.4925 22.9859 12.284C22.9413 11.9688 22.7442 11.6456 22.3484 11C21.9526 10.3544 21.7556 10.032 21.4878 9.8376C21.1297 9.57936 20.6789 9.46554 20.2331 9.5208C20.0293 9.5464 19.823 9.6248 19.5383 9.7672C19.3339 9.87266 19.1048 9.92737 18.8722 9.92625C18.6396 9.92514 18.4111 9.86822 18.2078 9.7608C18.0088 9.64904 17.843 9.49108 17.7259 9.30175C17.6088 9.11242 17.5443 8.89792 17.5383 8.6784C17.5257 8.3744 17.4954 8.1664 17.4162 7.988C17.3309 7.79323 17.2059 7.61641 17.0484 7.46772C16.8908 7.31903 16.7039 7.2014 16.4983 7.1216ZM15.0002 17.4C16.4066 17.4 17.5459 16.3256 17.5459 15C17.5459 13.6744 16.4057 12.6 15.0002 12.6C13.5948 12.6 12.4546 13.6744 12.4546 15C12.4546 16.3256 13.5948 17.4 15.0002 17.4Z" fill="white"/>
</svg>
