<svg width="16" height="16" viewBox="0 0 16 16" fill="none" xmlns="http://www.w3.org/2000/svg">
<path fill-rule="evenodd" clip-rule="evenodd" d="M9.49834 0.1216C9.18676 -3.57628e-08 8.79097 0 8.00024 0C7.20951 0 6.81456 -3.57628e-08 6.50214 0.1216C6.29657 0.201396 6.10964 0.319025 5.95212 0.467717C5.79459 0.616409 5.66957 0.793229 5.58425 0.988C5.50509 1.1664 5.47477 1.3752 5.46214 1.6784C5.45613 1.898 5.39146 2.11255 5.27421 2.30188C5.15695 2.49122 4.99096 2.64914 4.79183 2.7608C4.58867 2.86808 4.36029 2.92492 4.12785 2.92603C3.89542 2.92715 3.66644 2.87252 3.46215 2.7672C3.17752 2.6248 2.9712 2.5464 2.76741 2.5208C2.32159 2.46554 1.8708 2.57936 1.51268 2.8376C1.24489 3.0312 1.047 3.3544 0.652053 4C0.256265 4.6456 0.0592129 4.968 0.0145814 5.284C-0.0443657 5.7048 0.0768971 6.1304 0.351422 6.4672C0.476054 6.6208 0.652053 6.7496 0.924052 6.9112C1.32574 7.1488 1.58342 7.5536 1.58342 8C1.58342 8.4464 1.32574 8.8512 0.924894 9.088C0.652053 9.2504 0.476054 9.3792 0.35058 9.5328C0.215479 9.69937 0.116265 9.8896 0.0586113 10.0926C0.0009579 10.2957 -0.014004 10.5075 0.0145814 10.716C0.0592129 11.0312 0.256265 11.3544 0.652053 12C1.04784 12.6456 1.24489 12.968 1.51268 13.1624C1.86973 13.4208 2.3211 13.5344 2.76741 13.4792C2.9712 13.4536 3.17752 13.3752 3.46215 13.2328C3.66655 13.1273 3.89568 13.0726 4.12827 13.0737C4.36087 13.0749 4.58941 13.1318 4.79267 13.2392C5.20193 13.4632 5.44446 13.8752 5.46214 14.3216C5.47477 14.6256 5.50509 14.8336 5.58425 15.012C5.75604 15.404 6.08614 15.716 6.50214 15.8784C6.81372 16 7.20951 16 8.00024 16C8.79097 16 9.18676 16 9.49834 15.8784C9.70391 15.7986 9.89083 15.681 10.0484 15.5323C10.2059 15.3836 10.3309 15.2068 10.4162 15.012C10.4954 14.8336 10.5257 14.6256 10.5383 14.3216C10.5552 13.8752 10.7985 13.4624 11.2086 13.2392C11.4118 13.1319 11.6402 13.0751 11.8726 13.074C12.1051 13.0728 12.334 13.1275 12.5383 13.2328C12.823 13.3752 13.0293 13.4536 13.2331 13.4792C13.6794 13.5352 14.1307 13.4208 14.4878 13.1624C14.7556 12.9688 14.9535 12.6456 15.3484 12C15.7442 11.3544 15.9413 11.032 15.9859 10.716C16.0144 10.5074 15.9993 10.2956 15.9415 10.0925C15.8837 9.88952 15.7843 9.69931 15.6491 9.5328C15.5244 9.3792 15.3484 9.2504 15.0764 9.0888C14.6747 8.8512 14.4171 8.4464 14.4171 8C14.4171 7.5536 14.6747 7.1488 15.0756 6.912C15.3484 6.7496 15.5244 6.6208 15.6499 6.4672C15.785 6.30063 15.8842 6.1104 15.9419 5.90737C15.9995 5.70435 16.0145 5.49252 15.9859 5.284C15.9413 4.9688 15.7442 4.6456 15.3484 4C14.9526 3.3544 14.7556 3.032 14.4878 2.8376C14.1297 2.57936 13.6789 2.46554 13.2331 2.5208C13.0293 2.5464 12.823 2.6248 12.5383 2.7672C12.3339 2.87266 12.1048 2.92737 11.8722 2.92625C11.6396 2.92514 11.4111 2.86822 11.2078 2.7608C11.0088 2.64904 10.843 2.49108 10.7259 2.30175C10.6088 2.11242 10.5443 1.89792 10.5383 1.6784C10.5257 1.3744 10.4954 1.1664 10.4162 0.988C10.3309 0.793229 10.2059 0.616409 10.0484 0.467717C9.89083 0.319025 9.70391 0.201396 9.49834 0.1216ZM8.00024 10.4C9.40655 10.4 10.5459 9.3256 10.5459 8C10.5459 6.6744 9.40571 5.6 8.00024 5.6C6.59477 5.6 5.45456 6.6744 5.45456 8C5.45456 9.3256 6.59477 10.4 8.00024 10.4Z" fill="white"/>
</svg>
