<?xml version="1.0" encoding="UTF-8"?>
<svg id="Layer_1" xmlns="http://www.w3.org/2000/svg" version="1.1" viewBox="0 0 1080 1080">
  <!-- Generator: Adobe Illustrator 29.3.1, SVG Export Plug-In . SVG Version: 2.1.0 Build 151)  -->
  <defs>
    <style>
      .st0 {
        fill: #fff;
      }

      .st1 {
        fill: #f0b90b;
      }

      .st2 {
        fill: #2775ca;
      }
    </style>
  </defs>
  <g>
    <path class="st2" d="M454.75,992.06c250.53,0,452.06-201.53,452.06-452.06S705.28,87.94,454.75,87.94,2.69,289.47,2.69,540s201.53,452.06,452.06,452.06h0Z"/>
    <path class="st0" d="M579.07,611.57c0-65.91-39.55-88.51-118.66-97.96-56.51-7.55-67.81-22.6-67.81-48.96s18.85-43.31,56.51-43.31c33.91,0,52.75,11.3,62.15,39.55,1.9,5.65,7.55,9.4,13.2,9.4h30.15c7.55,0,13.2-5.66,13.2-13.2v-1.9c-7.55-41.45-41.45-73.46-84.76-77.21v-45.21c0-7.55-5.66-13.2-15.06-15.06h-28.25c-7.55,0-13.2,5.65-15.06,15.06v43.31c-56.51,7.55-92.32,45.21-92.32,92.32,0,62.15,37.66,86.66,116.76,96.06,52.75,9.4,69.71,20.7,69.71,50.85s-26.36,50.85-62.15,50.85c-48.96,0-65.91-20.7-71.56-48.96-1.9-7.55-7.55-11.3-13.2-11.3h-32.01c-7.55,0-13.2,5.66-13.2,13.2v1.9c7.55,47.11,37.66,81.01,99.82,90.41v45.21c0,7.55,5.66,13.2,15.06,15.06h28.25c7.55,0,13.2-5.65,15.06-15.06v-45.21c56.46-9.45,94.17-49.01,94.17-99.86h0v.02Z"/>
    <path class="st0" d="M358.69,809.34c-146.92-52.75-222.28-216.62-167.63-361.65,28.25-79.11,90.41-139.37,167.63-167.63,7.55-3.76,11.3-9.4,11.3-18.85v-26.36c0-7.55-3.76-13.2-11.3-15.06-1.9,0-5.65,0-7.55,1.9-178.93,56.51-276.89,246.74-220.38,425.7,33.91,105.46,114.92,186.48,220.38,220.38,7.55,3.76,15.06,0,16.95-7.55,1.9-1.9,1.9-3.76,1.9-7.55v-26.36c0-5.7-5.65-13.2-11.3-17h0ZM558.32,221.66c-7.55-3.76-15.06,0-16.96,7.55-1.9,1.9-1.9,3.76-1.9,7.55v26.36c0,7.55,5.66,15.06,11.3,18.85,146.92,52.75,222.28,216.62,167.63,361.65-28.25,79.11-90.41,139.37-167.63,167.63-7.55,3.76-11.3,9.4-11.3,18.85v26.35c0,7.55,3.76,13.2,11.3,15.06,1.9,0,5.66,0,7.55-1.9,178.93-56.51,276.89-246.74,220.38-425.7-33.91-107.32-116.76-188.33-220.38-222.24h.01Z"/>
  </g>
  <g>
    <circle class="st1" cx="852.6" cy="709.82" r="224.71"/>
    <g>
      <polygon class="st0" points="794.45 685.75 828.48 651.84 835.65 644.67 852.65 627.67 910.55 685.75 944.26 651.84 852.65 560.08 760.75 651.84 794.45 685.75"/>
      <rect class="st0" x="828.77" y="685.9" width="47.86" height="47.86" transform="translate(-252.18 810.85) rotate(-45)"/>
      <polygon class="st0" points="910.55 734.1 852.64 792.02 832.3 771.69 828.55 767.94 794.45 734.1 760.75 767.81 852.65 859.57 944.26 767.81 910.55 734.1"/>
      <rect class="st0" x="712.7" y="686" width="47.86" height="47.86" transform="translate(-286.24 728.8) rotate(-45)"/>
      <rect class="st0" x="944.64" y="685.98" width="47.86" height="47.86" transform="translate(-218.29 892.8) rotate(-45)"/>
    </g>
  </g>
</svg>