<?xml version="1.0" encoding="UTF-8"?>
<svg id="Layer_1" xmlns="http://www.w3.org/2000/svg" version="1.1" xmlns:xlink="http://www.w3.org/1999/xlink" viewBox="0 0 1080 1080">
  <!-- Generator: Adobe Illustrator 29.3.1, SVG Export Plug-In . SVG Version: 2.1.0 Build 151)  -->
  <defs>
    <style>
      .st0 {
        fill: url(#linear-gradient2);
      }

      .st1 {
        fill: #1baf00;
      }

      .st2 {
        fill: #fff;
      }

      .st3 {
        fill: url(#linear-gradient1);
      }

      .st4 {
        fill: none;
      }

      .st5 {
        fill: #00dadd;
      }

      .st6 {
        fill: #e4e200;
      }

      .st7 {
        fill: url(#linear-gradient3);
      }

      .st8 {
        fill: #2775ca;
      }

      .st9 {
        fill: #0b02cf;
      }

      .st10 {
        fill: url(#linear-gradient);
      }
    </style>
    <linearGradient id="linear-gradient" x1="852.7" y1="444.51" x2="942.24" y2="444.51" gradientTransform="translate(0 1082) scale(1 -1)" gradientUnits="userSpaceOnUse">
      <stop offset="0" stop-color="#1baf00"/>
      <stop offset=".36" stop-color="#aad300"/>
      <stop offset=".52" stop-color="#e5e300"/>
    </linearGradient>
    <linearGradient id="linear-gradient1" x1="866.47" y1="311.69" x2="1015" y2="311.69" gradientTransform="translate(0 1082) scale(1 -1)" gradientUnits="userSpaceOnUse">
      <stop offset=".11" stop-color="#e4e200"/>
      <stop offset=".2" stop-color="#e5dd00"/>
      <stop offset=".29" stop-color="#e9d000"/>
      <stop offset=".38" stop-color="#efbb00"/>
      <stop offset=".48" stop-color="#f89d00"/>
      <stop offset=".53" stop-color="#ff8a00"/>
    </linearGradient>
    <linearGradient id="linear-gradient2" x1="838.92" y1="432.66" x2="690.4" y2="432.66" gradientTransform="translate(0 1082) scale(1 -1)" gradientUnits="userSpaceOnUse">
      <stop offset=".17" stop-color="#00dadd"/>
      <stop offset=".2" stop-color="#0dcfde"/>
      <stop offset=".27" stop-color="#31b2e1"/>
      <stop offset=".36" stop-color="#6a85e6"/>
      <stop offset=".46" stop-color="#b946ee"/>
      <stop offset=".52" stop-color="#eb1ff3"/>
    </linearGradient>
    <linearGradient id="linear-gradient3" x1="852.7" y1="299.84" x2="763.14" y2="299.84" gradientTransform="translate(0 1082) scale(1 -1)" gradientUnits="userSpaceOnUse">
      <stop offset="0" stop-color="#0b02cf"/>
      <stop offset=".63" stop-color="#00dadd"/>
    </linearGradient>
  </defs>
  <g>
    <path class="st8" d="M454.75,992.06c250.53,0,452.06-201.53,452.06-452.06S705.28,87.94,454.75,87.94,2.69,289.47,2.69,540s201.53,452.06,452.06,452.06h0Z"/>
    <path class="st2" d="M579.07,611.57c0-65.91-39.55-88.51-118.66-97.96-56.51-7.55-67.81-22.6-67.81-48.96s18.85-43.31,56.51-43.31c33.91,0,52.75,11.3,62.15,39.55,1.9,5.65,7.55,9.4,13.2,9.4h30.15c7.55,0,13.2-5.66,13.2-13.2v-1.9c-7.55-41.45-41.45-73.46-84.76-77.21v-45.21c0-7.55-5.66-13.2-15.06-15.06h-28.25c-7.55,0-13.2,5.65-15.06,15.06v43.31c-56.51,7.55-92.32,45.21-92.32,92.32,0,62.15,37.66,86.66,116.76,96.06,52.75,9.4,69.71,20.7,69.71,50.85s-26.36,50.85-62.15,50.85c-48.96,0-65.91-20.7-71.56-48.96-1.9-7.55-7.55-11.3-13.2-11.3h-32.01c-7.55,0-13.2,5.66-13.2,13.2v1.9c7.55,47.11,37.66,81.01,99.82,90.41v45.21c0,7.55,5.66,13.2,15.06,15.06h28.25c7.55,0,13.2-5.65,15.06-15.06v-45.21c56.46-9.45,94.17-49.01,94.17-99.86h0v.02Z"/>
    <path class="st2" d="M358.69,809.34c-146.92-52.75-222.28-216.62-167.63-361.65,28.25-79.11,90.41-139.37,167.63-167.63,7.55-3.76,11.3-9.4,11.3-18.85v-26.36c0-7.55-3.76-13.2-11.3-15.06-1.9,0-5.65,0-7.55,1.9-178.93,56.51-276.89,246.74-220.38,425.7,33.91,105.46,114.92,186.48,220.38,220.38,7.55,3.76,15.06,0,16.95-7.55,1.9-1.9,1.9-3.76,1.9-7.55v-26.36c0-5.7-5.65-13.2-11.3-17h0ZM558.32,221.66c-7.55-3.76-15.06,0-16.96,7.55-1.9,1.9-1.9,3.76-1.9,7.55v26.36c0,7.55,5.66,15.06,11.3,18.85,146.92,52.75,222.28,216.62,167.63,361.65-28.25,79.11-90.41,139.37-167.63,167.63-7.55,3.76-11.3,9.4-11.3,18.85v26.35c0,7.55,3.76,13.2,11.3,15.06,1.9,0,5.66,0,7.55-1.9,178.93-56.51,276.89-246.74,220.38-425.7-33.91-107.32-116.76-188.33-220.38-222.24h.01Z"/>
  </g>
  <g>
    <circle class="st2" cx="852.7" cy="709.82" r="224.62"/>
    <g>
      <path class="st9" d="M726.59,698.17c-.71,7.76-.71,15.57,0,23.33l-11.66-11.66-8.13,8.13c-.3-5.42-.3-10.85,0-16.26,1.05-18.83,5.71-37.5,14-54.88l14.76,14.76c-4.84,11.76-7.84,24.1-8.97,36.58h0Z"/>
      <path class="st1" d="M942.24,661.6l34.44,34.44,2.11,2.11,11.66,11.66,13.78-13.78,13.78-13.78,13.78-13.78-89.56-89.56-8.96,8.96c-6.85-4.53-13.97-8.43-21.32-11.69-8.74-3.87-17.77-6.85-26.96-8.91-3.87-.87-7.75-1.58-11.66-2.14-4.16-.59-8.34-1-12.53-1.24-5.42-.3-10.85-.3-16.26,0-18.83,1.05-37.5,5.71-54.88,14-6.04,2.88-11.91,6.21-17.59,9.96-5.4,3.59-10.63,7.56-15.61,11.94l13.81,13.81,20.41,20.41,61.99,61.99,13.78-13.78,13.78-13.78,48.23-48.23,6.63-6.63,7.16-7.16,44.06,44.06,17.93,17.93-9.02,9.02-4.77,4.77-20.6-20.6-13.84-13.84-13.78-13.78-48.23,48.23-13.78,13.78-13.78,13.78,13.78,13.78,34.44,34.44,13.78,13.78,34.22,34.22.22.22,24.53,24.53h27.55l-38.31-38.31-2.07-2.07-14.11-14.11-18.27-18.27-13.78-13.78-34.44-34.44,48.23-48.23v.06ZM914.69,606.5l-13.78,13.78-34.44,34.44-13.78,13.78-66.49-66.49c5.87-3.63,11.98-6.73,18.24-9.31,11.76-4.84,24.1-7.84,36.58-8.97,7.76-.71,15.57-.71,23.33,0,1.27.12,2.55.25,3.82.41,11.14,1.36,22.14,4.21,32.67,8.53,6.3,2.58,12.44,5.7,18.33,9.34l-4.5,4.5h.03Z"/>
      <path class="st9" d="M935.1,806.01l-20.41-20.41-13.78-13.78-48.23-48.23-13.78,13.78-13.78,13.78-34.44,34.44-13.78,13.78-6.63,6.63-7.16,7.16-13.78-13.78-13.78-13.78-16.51-16.51-17.93-17.93,9.02-9.02,4.77-4.77,48.23,48.23,13.78-13.78,34.44-34.44,13.78-13.78,13.78-13.78-120.96-120.96h-27.55l40.36,40.36,14.11,14.11,18.27,18.27,48.23,48.23-13.78,13.78-34.44,34.44-48.23-48.23-8.13,8.13-5.65,5.65-13.78,13.78-13.78,13.78,13.78,13.78,34.44,34.44,13.78,13.78,13.78,13.78,13.78,13.78,8.96-8.96c6.85,4.53,13.97,8.43,21.32,11.69,8.74,3.87,17.77,6.85,26.96,8.91,3.87.87,7.75,1.58,11.66,2.14,4.16.59,8.34,1,12.53,1.24,5.42.3,10.85.3,16.26,0,18.83-1.05,37.5-5.71,54.88-14,6.04-2.88,11.91-6.21,17.59-9.96,5.4-3.59,10.63-7.56,15.61-11.94l-13.81-13.81v-.03ZM900.94,826.97c-11.76,4.84-24.1,7.84-36.58,8.97-7.76.71-15.57.71-23.33,0-1.27-.12-2.55-.25-3.82-.41-11.14-1.36-22.14-4.21-32.67-8.53-6.3-2.58-12.44-5.7-18.33-9.34l66.49-66.49,66.49,66.49c-5.87,3.63-11.98,6.73-18.24,9.31h-.01Z"/>
      <path class="st1" d="M998.6,717.96c-1.05,18.83-5.71,37.5-14,54.88l-14.76-14.76c4.84-11.76,7.84-24.1,8.97-36.58.71-7.76.71-15.57,0-23.33l11.66,11.66,8.13-8.13c.3,5.42.3,10.85,0,16.26h0Z"/>
      <polygon class="st10" points="852.7 668.49 942.24 578.95 942.24 606.5 852.7 696.04 852.7 668.49"/>
      <polygon class="st3" points="894.03 709.82 866.47 709.82 987.44 830.8 1015 830.8 894.03 709.82"/>
      <polygon class="st0" points="690.4 588.86 717.95 588.86 838.92 709.82 811.36 709.82 690.4 588.86"/>
      <polygon class="st7" points="763.14 840.72 763.14 813.15 852.7 723.61 852.7 751.16 763.14 840.72"/>
      <polygon class="st5" points="838.92 709.82 811.36 709.82 763.14 758.05 714.91 709.82 673.59 751.16 763.14 840.72 763.14 813.15 701.14 751.16 714.91 737.38 763.14 785.6 838.92 709.82"/>
      <polygon class="st6" points="942.24 578.95 942.24 606.5 1004.25 668.49 990.47 682.27 942.24 634.05 866.47 709.82 894.03 709.82 942.24 661.6 990.47 709.82 1031.8 668.49 942.24 578.95"/>
      <path class="st4" d="M726.59,698.17c-.71,7.76-.71,15.57,0,23.33l-11.66-11.66-8.13,8.13c-.3-5.42-.3-10.85,0-16.26,1.05-18.83,5.71-37.5,14-54.88l14.76,14.76c-4.84,11.76-7.84,24.1-8.97,36.58h0Z"/>
      <path class="st4" d="M935.1,806.01l-20.41-20.41-13.78-13.78-48.23-48.23-13.78,13.78-13.78,13.78-34.44,34.44-13.78,13.78-6.63,6.63-7.16,7.16-13.78-13.78-13.78-13.78-16.51-16.51-17.93-17.93,9.02-9.02,4.77-4.77,48.23,48.23,13.78-13.78,34.44-34.44,13.78-13.78,13.78-13.78-120.96-120.96h-27.55l40.36,40.36,14.11,14.11,18.27,18.27,48.23,48.23-13.78,13.78-34.44,34.44-48.23-48.23-8.13,8.13-5.65,5.65-13.78,13.78-13.78,13.78,13.78,13.78,34.44,34.44,13.78,13.78,13.78,13.78,13.78,13.78,8.96-8.96c6.85,4.53,13.97,8.43,21.32,11.69,8.74,3.87,17.77,6.85,26.96,8.91,3.87.87,7.75,1.58,11.66,2.14,4.16.59,8.34,1,12.53,1.24,5.42.3,10.85.3,16.26,0,18.83-1.05,37.5-5.71,54.88-14,6.04-2.88,11.91-6.21,17.59-9.96,5.4-3.59,10.63-7.56,15.61-11.94l-13.81-13.81v-.03ZM900.94,826.97c-11.76,4.84-24.1,7.84-36.58,8.97-7.76.71-15.57.71-23.33,0-1.27-.12-2.55-.25-3.82-.41-11.14-1.36-22.14-4.21-32.67-8.53-6.3-2.58-12.44-5.7-18.33-9.34l66.49-66.49,66.49,66.49c-5.87,3.63-11.98,6.73-18.24,9.31h-.01Z"/>
      <path class="st4" d="M998.6,717.96c-1.05,18.83-5.71,37.5-14,54.88l-14.76-14.76c4.84-11.76,7.84-24.1,8.97-36.58.71-7.76.71-15.57,0-23.33l11.66,11.66,8.13-8.13c.3,5.42.3,10.85,0,16.26h0Z"/>
      <path class="st4" d="M942.24,661.6l34.44,34.44,2.11,2.11,11.66,11.66,13.78-13.78,13.78-13.78,13.78-13.78-89.56-89.56-8.96,8.96c-6.85-4.53-13.97-8.43-21.32-11.69-8.74-3.87-17.77-6.85-26.96-8.91-3.87-.87-7.75-1.58-11.66-2.14-4.16-.59-8.34-1-12.53-1.24-5.42-.3-10.85-.3-16.26,0-18.83,1.05-37.5,5.71-54.88,14-6.04,2.88-11.91,6.21-17.59,9.96-5.4,3.59-10.63,7.56-15.61,11.94l13.81,13.81,20.41,20.41,61.99,61.99,13.78-13.78,13.78-13.78,48.23-48.23,6.63-6.63,7.16-7.16,44.06,44.06,17.93,17.93-9.02,9.02-4.77,4.77-20.6-20.6-13.84-13.84-13.78-13.78-48.23,48.23-13.78,13.78-13.78,13.78,13.78,13.78,34.44,34.44,13.78,13.78,34.22,34.22.22.22,24.53,24.53h27.55l-38.31-38.31-2.07-2.07-14.11-14.11-18.27-18.27-13.78-13.78-34.44-34.44,48.23-48.23v.06ZM914.69,606.5l-13.78,13.78-34.44,34.44-13.78,13.78-66.49-66.49c5.87-3.63,11.98-6.73,18.24-9.31,11.76-4.84,24.1-7.84,36.58-8.97,7.76-.71,15.57-.71,23.33,0,1.27.12,2.55.25,3.82.41,11.14,1.36,22.14,4.21,32.67,8.53,6.3,2.58,12.44,5.7,18.33,9.34l-4.5,4.5h.03Z"/>
    </g>
  </g>
</svg>