<svg width="20" height="20" viewBox="0 0 20 20" fill="none" xmlns="http://www.w3.org/2000/svg">
<path d="M10 20C15.542 20 20 15.542 20 10C20 4.458 15.542 0 10 0C4.458 0 0 4.458 0 10C0 15.542 4.458 20 10 20Z" fill="#2775CA"/>
<path d="M12.75 11.583C12.75 10.125 11.875 9.62501 10.125 9.41601C8.87497 9.24901 8.62497 8.91601 8.62497 8.33301C8.62497 7.75001 9.04197 7.37501 9.87497 7.37501C10.625 7.37501 11.042 7.62501 11.25 8.25001C11.292 8.37501 11.417 8.45801 11.542 8.45801H12.209C12.376 8.45801 12.501 8.33301 12.501 8.16601V8.12401C12.334 7.20701 11.584 6.49901 10.626 6.41601V5.41601C10.626 5.24901 10.501 5.12401 10.293 5.08301H9.66797C9.50097 5.08301 9.37597 5.20801 9.33497 5.41601V6.37401C8.08497 6.54101 7.29297 7.37401 7.29297 8.41601C7.29297 9.79101 8.12597 10.333 9.87597 10.541C11.043 10.749 11.418 10.999 11.418 11.666C11.418 12.333 10.835 12.791 10.043 12.791C8.95997 12.791 8.58497 12.333 8.45997 11.708C8.41797 11.541 8.29297 11.458 8.16797 11.458H7.45997C7.29297 11.458 7.16797 11.583 7.16797 11.75V11.792C7.33497 12.834 8.00097 13.584 9.37597 13.792V14.792C9.37597 14.959 9.50097 15.084 9.70897 15.125H10.334C10.501 15.125 10.626 15 10.667 14.792V13.792C11.916 13.583 12.75 12.708 12.75 11.583Z" fill="white"/>
<path d="M7.87535 15.958C4.62535 14.791 2.95835 11.166 4.16735 7.95796C4.79235 6.20796 6.16735 4.87496 7.87535 4.24996C8.04235 4.16696 8.12535 4.04196 8.12535 3.83296V3.24996C8.12535 3.08296 8.04235 2.95796 7.87535 2.91696C7.83335 2.91696 7.75035 2.91696 7.70835 2.95896C3.75035 4.20896 1.58335 8.41696 2.83335 12.376C3.58335 14.709 5.37535 16.501 7.70835 17.251C7.87535 17.334 8.04135 17.251 8.08335 17.084C8.12535 17.042 8.12535 17.001 8.12535 16.917V16.334C8.12535 16.208 8.00035 16.042 7.87535 15.958ZM12.2914 2.95796C12.1244 2.87496 11.9584 2.95796 11.9164 3.12496C11.8744 3.16696 11.8744 3.20796 11.8744 3.29196V3.87496C11.8744 4.04196 11.9994 4.20796 12.1244 4.29196C15.3744 5.45896 17.0414 9.08396 15.8324 12.292C15.2074 14.042 13.8324 15.375 12.1244 16C11.9574 16.083 11.8744 16.208 11.8744 16.417V17C11.8744 17.167 11.9574 17.292 12.1244 17.333C12.1664 17.333 12.2494 17.333 12.2914 17.291C16.2494 16.041 18.4164 11.833 17.1664 7.87396C16.4164 5.49996 14.5834 3.70796 12.2914 2.95796Z" fill="white"/>
</svg>
