<?xml version="1.0" encoding="UTF-8"?>
<svg id="Layer_1" xmlns="http://www.w3.org/2000/svg" version="1.1" xmlns:xlink="http://www.w3.org/1999/xlink" viewBox="0 0 1080 1080">
  <!-- Generator: Adobe Illustrator 29.3.1, SVG Export Plug-In . SVG Version: 2.1.0 Build 151)  -->
  <defs>
    <style>
      .st0 {
        fill: url(#linear-gradient2);
      }

      .st1 {
        fill: #1baf00;
      }

      .st2 {
        fill: #fff;
      }

      .st3 {
        fill: url(#linear-gradient1);
      }

      .st4 {
        fill: none;
      }

      .st5 {
        fill: #00dadd;
      }

      .st6 {
        fill: #e4e200;
      }

      .st7 {
        fill: url(#linear-gradient3);
      }

      .st8 {
        fill: #2775ca;
      }

      .st9 {
        fill: #0b02cf;
      }

      .st10 {
        fill: url(#linear-gradient);
      }
    </style>
    <linearGradient id="linear-gradient" x1="862" y1="643.19" x2="922.68" y2="643.19" gradientUnits="userSpaceOnUse">
      <stop offset="0" stop-color="#1baf00"/>
      <stop offset=".36" stop-color="#aad300"/>
      <stop offset=".52" stop-color="#e5e300"/>
    </linearGradient>
    <linearGradient id="linear-gradient1" x1="871.33" y1="733.2" x2="971.98" y2="733.2" gradientUnits="userSpaceOnUse">
      <stop offset=".11" stop-color="#e4e200"/>
      <stop offset=".2" stop-color="#e5dd00"/>
      <stop offset=".29" stop-color="#e9d000"/>
      <stop offset=".38" stop-color="#efbb00"/>
      <stop offset=".48" stop-color="#f89d00"/>
      <stop offset=".53" stop-color="#ff8a00"/>
    </linearGradient>
    <linearGradient id="linear-gradient2" x1="852.66" y1="651.23" x2="752.02" y2="651.23" gradientUnits="userSpaceOnUse">
      <stop offset=".17" stop-color="#00dadd"/>
      <stop offset=".2" stop-color="#0dcfde"/>
      <stop offset=".27" stop-color="#31b2e1"/>
      <stop offset=".36" stop-color="#6a85e6"/>
      <stop offset=".46" stop-color="#b946ee"/>
      <stop offset=".52" stop-color="#eb1ff3"/>
    </linearGradient>
    <linearGradient id="linear-gradient3" x1="862" y1="741.23" x2="801.31" y2="741.23" gradientUnits="userSpaceOnUse">
      <stop offset="0" stop-color="#0b02cf"/>
      <stop offset=".63" stop-color="#00dadd"/>
    </linearGradient>
  </defs>
  <g>
    <path class="st8" d="M540,946.79c225.44,0,406.79-181.35,406.79-406.79s-181.35-406.79-406.79-406.79-406.79,181.35-406.79,406.79,181.35,406.79,406.79,406.79Z"/>
    <path class="st2" d="M651.87,604.4c0-59.31-35.59-79.65-106.78-88.15-50.85-6.79-61.02-20.34-61.02-44.06s16.96-38.97,50.85-38.97c30.51,0,47.47,10.17,55.93,35.59,1.71,5.08,6.79,8.46,11.88,8.46h27.13c6.79,0,11.88-5.09,11.88-11.88v-1.71c-6.79-37.3-37.3-66.1-76.27-69.48v-40.68c0-6.79-5.09-11.88-13.55-13.55h-25.42c-6.79,0-11.88,5.08-13.55,13.55v38.97c-50.85,6.79-83.07,40.68-83.07,83.07,0,55.93,33.89,77.98,105.07,86.44,47.47,8.46,62.73,18.63,62.73,45.76s-23.72,45.76-55.93,45.76c-44.06,0-59.31-18.63-64.39-44.06-1.71-6.79-6.79-10.17-11.88-10.17h-28.8c-6.79,0-11.88,5.09-11.88,11.88v1.71c6.79,42.39,33.89,72.9,89.82,81.36v40.68c0,6.79,5.09,11.88,13.55,13.55h25.42c6.79,0,11.88-5.08,13.55-13.55v-40.68c50.81-8.5,84.74-44.1,84.74-89.86h0Z"/>
    <path class="st2" d="M453.56,782.37c-132.21-47.47-200.02-194.93-150.84-325.43,25.42-71.19,81.36-125.41,150.84-150.84,6.79-3.38,10.17-8.46,10.17-16.96v-23.72c0-6.79-3.38-11.88-10.17-13.55-1.71,0-5.08,0-6.79,1.71-161.01,50.85-249.16,222.03-198.31,383.07,30.51,94.9,103.41,167.8,198.31,198.31,6.79,3.38,13.55,0,15.25-6.79,1.71-1.71,1.71-3.38,1.71-6.79v-23.72c0-5.13-5.08-11.88-10.17-15.3ZM633.2,253.54c-6.79-3.38-13.55,0-15.26,6.79-1.71,1.71-1.71,3.38-1.71,6.79v23.72c0,6.79,5.09,13.55,10.17,16.96,132.21,47.47,200.02,194.93,150.84,325.43-25.42,71.19-81.36,125.41-150.84,150.84-6.79,3.38-10.17,8.46-10.17,16.96v23.71c0,6.79,3.38,11.88,10.17,13.55,1.71,0,5.09,0,6.79-1.71,161.01-50.85,249.16-222.03,198.31-383.07-30.51-96.57-105.07-169.47-198.31-199.98h0Z"/>
  </g>
  <g>
    <circle class="st2" cx="862" cy="692.21" r="152.21"/>
    <g>
      <path class="st9" d="M776.54,684.31c-.48,5.26-.48,10.55,0,15.81l-7.9-7.9-5.51,5.51c-.2-3.67-.2-7.35,0-11.02.71-12.76,3.87-25.41,9.49-37.19l10,10c-3.28,7.97-5.31,16.33-6.08,24.79Z"/>
      <path class="st1" d="M922.68,659.53l23.34,23.34,1.43,1.43,7.9,7.9,9.34-9.34,9.34-9.34,9.34-9.34-60.69-60.69-6.07,6.07c-4.64-3.07-9.47-5.71-14.45-7.92-5.92-2.62-12.04-4.64-18.27-6.04-2.62-.59-5.25-1.07-7.9-1.45-2.82-.4-5.65-.68-8.49-.84-3.67-.2-7.35-.2-11.02,0-12.76.71-25.41,3.87-37.19,9.49-4.09,1.95-8.07,4.21-11.92,6.75-3.66,2.43-7.2,5.12-10.58,8.09l9.36,9.36,13.83,13.83,42.01,42.01,9.34-9.34,9.34-9.34,32.68-32.68,4.49-4.49,4.85-4.85,29.86,29.86,12.15,12.15-6.11,6.11-3.23,3.23-13.96-13.96-9.38-9.38-9.34-9.34-32.68,32.68-9.34,9.34-9.34,9.34,9.34,9.34,23.34,23.34,9.34,9.34,23.19,23.19.15.15,16.62,16.62h18.67l-25.96-25.96-1.4-1.4-9.56-9.56-12.38-12.38-9.34-9.34-23.34-23.34,32.68-32.68ZM904.01,622.19l-9.34,9.34-23.34,23.34-9.34,9.34-45.06-45.06c3.98-2.46,8.12-4.56,12.36-6.31,7.97-3.28,16.33-5.31,24.79-6.08,5.26-.48,10.55-.48,15.81,0,.86.08,1.73.17,2.59.28,7.55.92,15,2.85,22.14,5.78,4.27,1.75,8.43,3.86,12.42,6.33l-3.05,3.05Z"/>
      <path class="st9" d="M917.84,757.39l-13.83-13.83-9.34-9.34-32.68-32.68-9.34,9.34-9.34,9.34-23.34,23.34-9.34,9.34-4.49,4.49-4.85,4.85-9.34-9.34-9.34-9.34-11.19-11.19-12.15-12.15,6.11-6.11,3.23-3.23,32.68,32.68,9.34-9.34,23.34-23.34,9.34-9.34,9.34-9.34-81.97-81.97h-18.67l27.35,27.35,9.56,9.56,12.38,12.38,32.68,32.68-9.34,9.34-23.34,23.34-32.68-32.68-5.51,5.51-3.83,3.83-9.34,9.34-9.34,9.34,9.34,9.34,23.34,23.34,9.34,9.34,9.34,9.34,9.34,9.34,6.07-6.07c4.64,3.07,9.47,5.71,14.45,7.92,5.92,2.62,12.04,4.64,18.27,6.04,2.62.59,5.25,1.07,7.9,1.45,2.82.4,5.65.68,8.49.84,3.67.2,7.35.2,11.02,0,12.76-.71,25.41-3.87,37.19-9.49,4.09-1.95,8.07-4.21,11.92-6.75,3.66-2.43,7.2-5.12,10.58-8.09l-9.36-9.36ZM894.69,771.59c-7.97,3.28-16.33,5.31-24.79,6.08-5.26.48-10.55.48-15.81,0-.86-.08-1.73-.17-2.59-.28-7.55-.92-15-2.85-22.14-5.78-4.27-1.75-8.43-3.86-12.42-6.33l45.06-45.06,45.06,45.06c-3.98,2.46-8.12,4.56-12.36,6.31Z"/>
      <path class="st1" d="M960.87,697.72c-.71,12.76-3.87,25.41-9.49,37.19l-10-10c3.28-7.97,5.31-16.33,6.08-24.79.48-5.26.48-10.55,0-15.81l7.9,7.9,5.51-5.51c.2,3.67.2,7.35,0,11.02Z"/>
      <polygon class="st10" points="862 664.2 922.68 603.52 922.68 622.19 862 682.87 862 664.2"/>
      <polygon class="st3" points="890.01 692.21 871.33 692.21 953.31 774.19 971.98 774.19 890.01 692.21"/>
      <polygon class="st0" points="752.02 610.24 770.69 610.24 852.66 692.21 833.99 692.21 752.02 610.24"/>
      <polygon class="st7" points="801.31 780.91 801.31 762.23 862 701.55 862 720.22 801.31 780.91"/>
      <polygon class="st5" points="852.66 692.21 833.99 692.21 801.31 724.89 768.63 692.21 740.63 720.22 801.31 780.91 801.31 762.23 759.3 720.22 768.63 710.88 801.31 743.56 852.66 692.21"/>
      <polygon class="st6" points="922.68 603.52 922.68 622.19 964.7 664.2 955.36 673.54 922.68 640.86 871.33 692.21 890.01 692.21 922.68 659.53 955.36 692.21 983.37 664.2 922.68 603.52"/>
      <path class="st4" d="M776.54,684.31c-.48,5.26-.48,10.55,0,15.81l-7.9-7.9-5.51,5.51c-.2-3.67-.2-7.35,0-11.02.71-12.76,3.87-25.41,9.49-37.19l10,10c-3.28,7.97-5.31,16.33-6.08,24.79Z"/>
      <path class="st4" d="M917.84,757.39l-13.83-13.83-9.34-9.34-32.68-32.68-9.34,9.34-9.34,9.34-23.34,23.34-9.34,9.34-4.49,4.49-4.85,4.85-9.34-9.34-9.34-9.34-11.19-11.19-12.15-12.15,6.11-6.11,3.23-3.23,32.68,32.68,9.34-9.34,23.34-23.34,9.34-9.34,9.34-9.34-81.97-81.97h-18.67l27.35,27.35,9.56,9.56,12.38,12.38,32.68,32.68-9.34,9.34-23.34,23.34-32.68-32.68-5.51,5.51-3.83,3.83-9.34,9.34-9.34,9.34,9.34,9.34,23.34,23.34,9.34,9.34,9.34,9.34,9.34,9.34,6.07-6.07c4.64,3.07,9.47,5.71,14.45,7.92,5.92,2.62,12.04,4.64,18.27,6.04,2.62.59,5.25,1.07,7.9,1.45,2.82.4,5.65.68,8.49.84,3.67.2,7.35.2,11.02,0,12.76-.71,25.41-3.87,37.19-9.49,4.09-1.95,8.07-4.21,11.92-6.75,3.66-2.43,7.2-5.12,10.58-8.09l-9.36-9.36ZM894.69,771.59c-7.97,3.28-16.33,5.31-24.79,6.08-5.26.48-10.55.48-15.81,0-.86-.08-1.73-.17-2.59-.28-7.55-.92-15-2.85-22.14-5.78-4.27-1.75-8.43-3.86-12.42-6.33l45.06-45.06,45.06,45.06c-3.98,2.46-8.12,4.56-12.36,6.31Z"/>
      <path class="st4" d="M960.87,697.72c-.71,12.76-3.87,25.41-9.49,37.19l-10-10c3.28-7.97,5.31-16.33,6.08-24.79.48-5.26.48-10.55,0-15.81l7.9,7.9,5.51-5.51c.2,3.67.2,7.35,0,11.02Z"/>
      <path class="st4" d="M922.68,659.53l23.34,23.34,1.43,1.43,7.9,7.9,9.34-9.34,9.34-9.34,9.34-9.34-60.69-60.69-6.07,6.07c-4.64-3.07-9.47-5.71-14.45-7.92-5.92-2.62-12.04-4.64-18.27-6.04-2.62-.59-5.25-1.07-7.9-1.45-2.82-.4-5.65-.68-8.49-.84-3.67-.2-7.35-.2-11.02,0-12.76.71-25.41,3.87-37.19,9.49-4.09,1.95-8.07,4.21-11.92,6.75-3.66,2.43-7.2,5.12-10.58,8.09l9.36,9.36,13.83,13.83,42.01,42.01,9.34-9.34,9.34-9.34,32.68-32.68,4.49-4.49,4.85-4.85,29.86,29.86,12.15,12.15-6.11,6.11-3.23,3.23-13.96-13.96-9.38-9.38-9.34-9.34-32.68,32.68-9.34,9.34-9.34,9.34,9.34,9.34,23.34,23.34,9.34,9.34,23.19,23.19.15.15,16.62,16.62h18.67l-25.96-25.96-1.4-1.4-9.56-9.56-12.38-12.38-9.34-9.34-23.34-23.34,32.68-32.68ZM904.01,622.19l-9.34,9.34-23.34,23.34-9.34,9.34-45.06-45.06c3.98-2.46,8.12-4.56,12.36-6.31,7.97-3.28,16.33-5.31,24.79-6.08,5.26-.48,10.55-.48,15.81,0,.86.08,1.73.17,2.59.28,7.55.92,15,2.85,22.14,5.78,4.27,1.75,8.43,3.86,12.42,6.33l-3.05,3.05Z"/>
    </g>
  </g>
</svg>