<?xml version="1.0" encoding="UTF-8"?>
<svg id="Layer_1" xmlns="http://www.w3.org/2000/svg" version="1.1" viewBox="0 0 1080 1080">
  <!-- Generator: Adobe Illustrator 29.3.1, SVG Export Plug-In . SVG Version: 2.1.0 Build 151)  -->
  <defs>
    <style>
      .st0 {
        fill: #313131;
      }

      .st1 {
        fill: #fff;
      }

      .st2 {
        fill: #131313;
      }

      .st3 {
        fill: #363636;
      }

      .st4 {
        fill: #888;
      }

      .st5 {
        fill: #2775ca;
      }
    </style>
  </defs>
  <g>
    <path class="st5" d="M540,946.79c225.44,0,406.79-181.35,406.79-406.79s-181.35-406.79-406.79-406.79-406.79,181.35-406.79,406.79,181.35,406.79,406.79,406.79Z"/>
    <path class="st1" d="M651.87,604.4c0-59.31-35.59-79.65-106.78-88.15-50.85-6.79-61.02-20.34-61.02-44.06s16.96-38.97,50.85-38.97c30.51,0,47.47,10.17,55.93,35.59,1.71,5.08,6.79,8.46,11.88,8.46h27.13c6.79,0,11.88-5.09,11.88-11.88v-1.71c-6.79-37.3-37.3-66.1-76.27-69.48v-40.68c0-6.79-5.09-11.88-13.55-13.55h-25.42c-6.79,0-11.88,5.08-13.55,13.55v38.97c-50.85,6.79-83.07,40.68-83.07,83.07,0,55.93,33.89,77.98,105.07,86.44,47.47,8.46,62.73,18.63,62.73,45.76s-23.72,45.76-55.93,45.76c-44.06,0-59.31-18.63-64.39-44.06-1.71-6.79-6.79-10.17-11.88-10.17h-28.8c-6.79,0-11.88,5.09-11.88,11.88v1.71c6.79,42.39,33.89,72.9,89.82,81.36v40.68c0,6.79,5.09,11.88,13.55,13.55h25.42c6.79,0,11.88-5.08,13.55-13.55v-40.68c50.81-8.5,84.74-44.1,84.74-89.86h0Z"/>
    <path class="st1" d="M453.56,782.37c-132.21-47.47-200.02-194.93-150.84-325.43,25.42-71.19,81.36-125.41,150.84-150.84,6.79-3.38,10.17-8.46,10.17-16.96v-23.72c0-6.79-3.38-11.88-10.17-13.55-1.71,0-5.08,0-6.79,1.71-161.01,50.85-249.16,222.03-198.31,383.07,30.51,94.9,103.41,167.8,198.31,198.31,6.79,3.38,13.55,0,15.25-6.79,1.71-1.71,1.71-3.38,1.71-6.79v-23.72c0-5.13-5.08-11.88-10.17-15.3ZM633.2,253.54c-6.79-3.38-13.55,0-15.26,6.79-1.71,1.71-1.71,3.38-1.71,6.79v23.72c0,6.79,5.09,13.55,10.17,16.96,132.21,47.47,200.02,194.93,150.84,325.43-25.42,71.19-81.36,125.41-150.84,150.84-6.79,3.38-10.17,8.46-10.17,16.96v23.71c0,6.79,3.38,11.88,10.17,13.55,1.71,0,5.09,0,6.79-1.71,161.01-50.85,249.16-222.03,198.31-383.07-30.51-96.57-105.07-169.47-198.31-199.98h0Z"/>
  </g>
  <g>
    <circle class="st1" cx="863" cy="692.81" r="152.21"/>
    <g>
      <polygon class="st4" points="863 580.29 793.8 696.24 863 664.62 863 580.29"/>
      <polygon class="st4" points="863 805.32 863 748.03 793.8 706.78 863 805.32"/>
      <polygon class="st3" points="793.8 696.24 863 664.62 863 736.57 793.8 696.24"/>
      <polygon class="st0" points="863 580.29 932.21 696.24 863 664.62 863 580.29"/>
      <polygon class="st0" points="863 805.32 863 748.03 932.21 706.78 863 805.32"/>
      <polygon class="st2" points="932.21 696.24 863 664.62 863 736.57 932.21 696.24"/>
    </g>
  </g>
</svg>