<?xml version="1.0" encoding="UTF-8"?>
<svg id="Layer_1" xmlns="http://www.w3.org/2000/svg" version="1.1" viewBox="0 0 1080 1080">
  <!-- Generator: Adobe Illustrator 29.3.1, SVG Export Plug-In . SVG Version: 2.1.0 Build 151)  -->
  <defs>
    <style>
      .st0 {
        fill: #53ae94;
      }

      .st1 {
        fill: #fff;
      }

      .st2 {
        fill: #f0b90b;
        fill-rule: evenodd;
      }
    </style>
  </defs>
  <g>
    <path class="st0" d="M540,133.21c224.65,0,406.79,182.14,406.79,406.79s-182.14,406.79-406.79,406.79-406.79-182.09-406.79-406.79,182.11-406.79,406.79-406.79"/>
    <path class="st1" d="M590.21,485.8v-60.51h138.38v-92.2h-376.82v92.2h138.4v60.46c-112.48,5.17-197.05,27.44-197.05,54.13s84.61,48.96,197.05,54.16v193.84h100.07v-193.85c112.28-5.18,196.67-27.44,196.67-54.1s-84.4-48.92-196.67-54.1M590.24,577.6v-.05c-2.82.18-17.33,1.05-49.63,1.05-25.82,0-43.99-.73-50.39-1.07v.08c-99.37-4.4-173.54-21.71-173.54-42.41s74.18-37.99,173.54-42.4v67.57c6.51.45,25.12,1.55,50.82,1.55,30.86,0,46.37-1.28,49.22-1.55v-67.57c99.18,4.42,173.18,21.74,173.18,42.37s-74.04,37.96-173.18,42.38"/>
  </g>
  <g>
    <path class="st2" d="M863,540.6c84.07,0,152.21,68.14,152.21,152.21s-68.14,152.21-152.21,152.21-152.21-68.14-152.21-152.21,68.14-152.21,152.21-152.21h0Z"/>
    <path class="st1" d="M794.45,692.81l.11,40.25,34.2,20.12v23.56l-54.21-31.8v-63.91l19.9,11.77h0ZM794.45,652.56v23.45l-19.92-11.78v-23.45l19.92-11.78,20.01,11.78-20.01,11.78h0ZM843.04,640.78l19.92-11.78,20.01,11.78-20.01,11.78-19.92-11.78h0Z"/>
    <path class="st1" d="M808.84,724.71v-23.56l19.92,11.78v23.45l-19.92-11.67h0ZM843.04,761.62l19.92,11.78,20.01-11.78v23.45l-20.01,11.78-19.92-11.78v-23.45h0ZM911.53,640.78l19.92-11.78,20.01,11.78v23.45l-20.01,11.78v-23.45l-19.92-11.78h0ZM931.45,733.05l.11-40.25,19.92-11.78v63.91l-54.21,31.8v-23.56l34.19-20.11h0Z"/>
    <polygon class="st1" points="917.17 724.71 897.25 736.38 897.25 712.93 917.17 701.15 917.17 724.71"/>
    <path class="st1" d="M917.17,660.9l.11,23.56-34.3,20.12v40.35l-19.92,11.67-19.92-11.67v-40.35l-34.3-20.12v-23.56l20-11.78,34.09,20.22,34.3-20.22,20.01,11.78h-.09ZM808.84,620.67l54.12-31.91,54.21,31.91-19.92,11.78-34.3-20.22-34.2,20.22-19.92-11.78h0Z"/>
  </g>
</svg>