<?xml version="1.0" encoding="UTF-8"?>
<svg id="Layer_1" xmlns="http://www.w3.org/2000/svg" version="1.1" viewBox="0 0 1080 1080">
  <!-- Generator: Adobe Illustrator 29.3.1, SVG Export Plug-In . SVG Version: 2.1.0 Build 151)  -->
  <defs>
    <style>
      .st0 {
        fill: #313131;
      }

      .st1 {
        fill: #53ae94;
      }

      .st2 {
        fill: #fff;
      }

      .st3 {
        fill: #131313;
      }

      .st4 {
        fill: #363636;
      }

      .st5 {
        fill: #888;
      }
    </style>
  </defs>
  <g>
    <path class="st1" d="M454.75,87.94c249.66,0,452.06,202.41,452.06,452.06s-202.42,452.06-452.06,452.06S2.69,789.71,2.69,540,205.07,87.94,454.75,87.94"/>
    <path class="st2" d="M510.54,479.77v-67.25h153.78v-102.46H245.57v102.46h153.8v67.19c-125,5.74-218.98,30.5-218.98,60.15s94.03,54.41,218.98,60.19v215.41h111.21v-215.43c124.77-5.76,218.56-30.5,218.56-60.12s-93.79-54.37-218.56-60.12M510.58,581.79v-.05c-3.14.2-19.26,1.17-55.15,1.17-28.7,0-48.89-.81-56-1.18v.09c-110.43-4.89-192.86-24.12-192.86-47.13s82.44-42.21,192.86-47.11v75.09c7.23.5,27.92,1.72,56.47,1.72,34.29,0,51.54-1.43,54.7-1.72v-75.09c110.21,4.91,192.45,24.16,192.45,47.09s-82.28,42.19-192.45,47.1"/>
  </g>
  <g>
    <circle class="st2" cx="852.6" cy="709.82" r="224.71"/>
    <g>
      <polygon class="st5" points="852.6 523.85 738.22 715.51 852.6 663.24 852.6 523.85"/>
      <polygon class="st5" points="852.6 895.8 852.6 801.11 738.22 732.93 852.6 895.8"/>
      <polygon class="st4" points="738.22 715.51 852.6 663.24 852.6 782.17 738.22 715.51"/>
      <polygon class="st0" points="852.6 523.85 966.99 715.51 852.6 663.24 852.6 523.85"/>
      <polygon class="st0" points="852.6 895.8 852.6 801.11 966.99 732.93 852.6 895.8"/>
      <polygon class="st3" points="966.99 715.51 852.6 663.24 852.6 782.17 966.99 715.51"/>
    </g>
  </g>
</svg>