<?xml version="1.0" encoding="UTF-8"?>
<svg id="Layer_1" xmlns="http://www.w3.org/2000/svg" version="1.1" xmlns:xlink="http://www.w3.org/1999/xlink" viewBox="0 0 1080 1080">
  <!-- Generator: Adobe Illustrator 29.3.1, SVG Export Plug-In . SVG Version: 2.1.0 Build 151)  -->
  <defs>
    <style>
      .st0 {
        fill: url(#linear-gradient2);
      }

      .st1 {
        fill: #53ae94;
      }

      .st2 {
        fill: #1baf00;
      }

      .st3 {
        fill: #fff;
      }

      .st4 {
        fill: url(#linear-gradient1);
      }

      .st5 {
        fill: none;
      }

      .st6 {
        fill: #00dadd;
      }

      .st7 {
        fill: #e4e200;
      }

      .st8 {
        fill: url(#linear-gradient3);
      }

      .st9 {
        fill: #0b02cf;
      }

      .st10 {
        fill: url(#linear-gradient);
      }
    </style>
    <linearGradient id="linear-gradient" x1="862" y1="643.19" x2="922.68" y2="643.19" gradientUnits="userSpaceOnUse">
      <stop offset="0" stop-color="#1baf00"/>
      <stop offset=".36" stop-color="#aad300"/>
      <stop offset=".52" stop-color="#e5e300"/>
    </linearGradient>
    <linearGradient id="linear-gradient1" x1="871.33" y1="733.2" x2="971.98" y2="733.2" gradientUnits="userSpaceOnUse">
      <stop offset=".11" stop-color="#e4e200"/>
      <stop offset=".2" stop-color="#e5dd00"/>
      <stop offset=".29" stop-color="#e9d000"/>
      <stop offset=".38" stop-color="#efbb00"/>
      <stop offset=".48" stop-color="#f89d00"/>
      <stop offset=".53" stop-color="#ff8a00"/>
    </linearGradient>
    <linearGradient id="linear-gradient2" x1="852.66" y1="651.23" x2="752.02" y2="651.23" gradientUnits="userSpaceOnUse">
      <stop offset=".17" stop-color="#00dadd"/>
      <stop offset=".2" stop-color="#0dcfde"/>
      <stop offset=".27" stop-color="#31b2e1"/>
      <stop offset=".36" stop-color="#6a85e6"/>
      <stop offset=".46" stop-color="#b946ee"/>
      <stop offset=".52" stop-color="#eb1ff3"/>
    </linearGradient>
    <linearGradient id="linear-gradient3" x1="862" y1="741.23" x2="801.31" y2="741.23" gradientUnits="userSpaceOnUse">
      <stop offset="0" stop-color="#0b02cf"/>
      <stop offset=".63" stop-color="#00dadd"/>
    </linearGradient>
  </defs>
  <g>
    <path class="st1" d="M540,133.21c224.65,0,406.79,182.14,406.79,406.79s-182.14,406.79-406.79,406.79-406.79-182.09-406.79-406.79,182.11-406.79,406.79-406.79"/>
    <path class="st3" d="M590.21,485.8v-60.51h138.38v-92.2h-376.82v92.2h138.4v60.46c-112.48,5.17-197.05,27.44-197.05,54.13s84.61,48.96,197.05,54.16v193.84h100.07v-193.85c112.28-5.18,196.67-27.44,196.67-54.1s-84.4-48.92-196.67-54.1M590.24,577.6v-.05c-2.82.18-17.33,1.05-49.63,1.05-25.82,0-43.99-.73-50.39-1.07v.08c-99.37-4.4-173.54-21.71-173.54-42.41s74.18-37.99,173.54-42.4v67.57c6.51.45,25.12,1.55,50.82,1.55,30.86,0,46.37-1.28,49.22-1.55v-67.57c99.18,4.42,173.18,21.74,173.18,42.37s-74.04,37.96-173.18,42.38"/>
  </g>
  <g>
    <circle class="st3" cx="862" cy="692.21" r="152.21"/>
    <g>
      <path class="st9" d="M776.54,684.31c-.48,5.26-.48,10.55,0,15.81l-7.9-7.9-5.51,5.51c-.2-3.67-.2-7.35,0-11.02.71-12.76,3.87-25.41,9.49-37.19l10,10c-3.28,7.97-5.31,16.33-6.08,24.79Z"/>
      <path class="st2" d="M922.68,659.53l23.34,23.34,1.43,1.43,7.9,7.9,9.34-9.34,9.34-9.34,9.34-9.34-60.69-60.69-6.07,6.07c-4.64-3.07-9.47-5.71-14.45-7.92-5.92-2.62-12.04-4.64-18.27-6.04-2.62-.59-5.25-1.07-7.9-1.45-2.82-.4-5.65-.68-8.49-.84-3.67-.2-7.35-.2-11.02,0-12.76.71-25.41,3.87-37.19,9.49-4.09,1.95-8.07,4.21-11.92,6.75-3.66,2.43-7.2,5.12-10.58,8.09l9.36,9.36,13.83,13.83,42.01,42.01,9.34-9.34,9.34-9.34,32.68-32.68,4.49-4.49,4.85-4.85,29.86,29.86,12.15,12.15-6.11,6.11-3.23,3.23-13.96-13.96-9.38-9.38-9.34-9.34-32.68,32.68-9.34,9.34-9.34,9.34,9.34,9.34,23.34,23.34,9.34,9.34,23.19,23.19.15.15,16.62,16.62h18.67l-25.96-25.96-1.4-1.4-9.56-9.56-12.38-12.38-9.34-9.34-23.34-23.34,32.68-32.68ZM904.01,622.19l-9.34,9.34-23.34,23.34-9.34,9.34-45.06-45.06c3.98-2.46,8.12-4.56,12.36-6.31,7.97-3.28,16.33-5.31,24.79-6.08,5.26-.48,10.55-.48,15.81,0,.86.08,1.73.17,2.59.28,7.55.92,15,2.85,22.14,5.78,4.27,1.75,8.43,3.86,12.42,6.33l-3.05,3.05Z"/>
      <path class="st9" d="M917.84,757.39l-13.83-13.83-9.34-9.34-32.68-32.68-9.34,9.34-9.34,9.34-23.34,23.34-9.34,9.34-4.49,4.49-4.85,4.85-9.34-9.34-9.34-9.34-11.19-11.19-12.15-12.15,6.11-6.11,3.23-3.23,32.68,32.68,9.34-9.34,23.34-23.34,9.34-9.34,9.34-9.34-81.97-81.97h-18.67l27.35,27.35,9.56,9.56,12.38,12.38,32.68,32.68-9.34,9.34-23.34,23.34-32.68-32.68-5.51,5.51-3.83,3.83-9.34,9.34-9.34,9.34,9.34,9.34,23.34,23.34,9.34,9.34,9.34,9.34,9.34,9.34,6.07-6.07c4.64,3.07,9.47,5.71,14.45,7.92,5.92,2.62,12.04,4.64,18.27,6.04,2.62.59,5.25,1.07,7.9,1.45,2.82.4,5.65.68,8.49.84,3.67.2,7.35.2,11.02,0,12.76-.71,25.41-3.87,37.19-9.49,4.09-1.95,8.07-4.21,11.92-6.75,3.66-2.43,7.2-5.12,10.58-8.09l-9.36-9.36ZM894.69,771.59c-7.97,3.28-16.33,5.31-24.79,6.08-5.26.48-10.55.48-15.81,0-.86-.08-1.73-.17-2.59-.28-7.55-.92-15-2.85-22.14-5.78-4.27-1.75-8.43-3.86-12.42-6.33l45.06-45.06,45.06,45.06c-3.98,2.46-8.12,4.56-12.36,6.31Z"/>
      <path class="st2" d="M960.87,697.72c-.71,12.76-3.87,25.41-9.49,37.19l-10-10c3.28-7.97,5.31-16.33,6.08-24.79.48-5.26.48-10.55,0-15.81l7.9,7.9,5.51-5.51c.2,3.67.2,7.35,0,11.02Z"/>
      <polygon class="st10" points="862 664.2 922.68 603.52 922.68 622.19 862 682.87 862 664.2"/>
      <polygon class="st4" points="890.01 692.21 871.33 692.21 953.31 774.19 971.98 774.19 890.01 692.21"/>
      <polygon class="st0" points="752.02 610.24 770.69 610.24 852.66 692.21 833.99 692.21 752.02 610.24"/>
      <polygon class="st8" points="801.31 780.91 801.31 762.23 862 701.55 862 720.22 801.31 780.91"/>
      <polygon class="st6" points="852.66 692.21 833.99 692.21 801.31 724.89 768.63 692.21 740.63 720.22 801.31 780.91 801.31 762.23 759.3 720.22 768.63 710.88 801.31 743.56 852.66 692.21"/>
      <polygon class="st7" points="922.68 603.52 922.68 622.19 964.7 664.2 955.36 673.54 922.68 640.86 871.33 692.21 890.01 692.21 922.68 659.53 955.36 692.21 983.37 664.2 922.68 603.52"/>
      <path class="st5" d="M776.54,684.31c-.48,5.26-.48,10.55,0,15.81l-7.9-7.9-5.51,5.51c-.2-3.67-.2-7.35,0-11.02.71-12.76,3.87-25.41,9.49-37.19l10,10c-3.28,7.97-5.31,16.33-6.08,24.79Z"/>
      <path class="st5" d="M917.84,757.39l-13.83-13.83-9.34-9.34-32.68-32.68-9.34,9.34-9.34,9.34-23.34,23.34-9.34,9.34-4.49,4.49-4.85,4.85-9.34-9.34-9.34-9.34-11.19-11.19-12.15-12.15,6.11-6.11,3.23-3.23,32.68,32.68,9.34-9.34,23.34-23.34,9.34-9.34,9.34-9.34-81.97-81.97h-18.67l27.35,27.35,9.56,9.56,12.38,12.38,32.68,32.68-9.34,9.34-23.34,23.34-32.68-32.68-5.51,5.51-3.83,3.83-9.34,9.34-9.34,9.34,9.34,9.34,23.34,23.34,9.34,9.34,9.34,9.34,9.34,9.34,6.07-6.07c4.64,3.07,9.47,5.71,14.45,7.92,5.92,2.62,12.04,4.64,18.27,6.04,2.62.59,5.25,1.07,7.9,1.45,2.82.4,5.65.68,8.49.84,3.67.2,7.35.2,11.02,0,12.76-.71,25.41-3.87,37.19-9.49,4.09-1.95,8.07-4.21,11.92-6.75,3.66-2.43,7.2-5.12,10.58-8.09l-9.36-9.36ZM894.69,771.59c-7.97,3.28-16.33,5.31-24.79,6.08-5.26.48-10.55.48-15.81,0-.86-.08-1.73-.17-2.59-.28-7.55-.92-15-2.85-22.14-5.78-4.27-1.75-8.43-3.86-12.42-6.33l45.06-45.06,45.06,45.06c-3.98,2.46-8.12,4.56-12.36,6.31Z"/>
      <path class="st5" d="M960.87,697.72c-.71,12.76-3.87,25.41-9.49,37.19l-10-10c3.28-7.97,5.31-16.33,6.08-24.79.48-5.26.48-10.55,0-15.81l7.9,7.9,5.51-5.51c.2,3.67.2,7.35,0,11.02Z"/>
      <path class="st5" d="M922.68,659.53l23.34,23.34,1.43,1.43,7.9,7.9,9.34-9.34,9.34-9.34,9.34-9.34-60.69-60.69-6.07,6.07c-4.64-3.07-9.47-5.71-14.45-7.92-5.92-2.62-12.04-4.64-18.27-6.04-2.62-.59-5.25-1.07-7.9-1.45-2.82-.4-5.65-.68-8.49-.84-3.67-.2-7.35-.2-11.02,0-12.76.71-25.41,3.87-37.19,9.49-4.09,1.95-8.07,4.21-11.92,6.75-3.66,2.43-7.2,5.12-10.58,8.09l9.36,9.36,13.83,13.83,42.01,42.01,9.34-9.34,9.34-9.34,32.68-32.68,4.49-4.49,4.85-4.85,29.86,29.86,12.15,12.15-6.11,6.11-3.23,3.23-13.96-13.96-9.38-9.38-9.34-9.34-32.68,32.68-9.34,9.34-9.34,9.34,9.34,9.34,23.34,23.34,9.34,9.34,23.19,23.19.15.15,16.62,16.62h18.67l-25.96-25.96-1.4-1.4-9.56-9.56-12.38-12.38-9.34-9.34-23.34-23.34,32.68-32.68ZM904.01,622.19l-9.34,9.34-23.34,23.34-9.34,9.34-45.06-45.06c3.98-2.46,8.12-4.56,12.36-6.31,7.97-3.28,16.33-5.31,24.79-6.08,5.26-.48,10.55-.48,15.81,0,.86.08,1.73.17,2.59.28,7.55.92,15,2.85,22.14,5.78,4.27,1.75,8.43,3.86,12.42,6.33l-3.05,3.05Z"/>
    </g>
  </g>
</svg>