<?xml version="1.0" encoding="UTF-8"?>
<svg id="Layer_1" xmlns="http://www.w3.org/2000/svg" version="1.1" viewBox="0 0 1080 1080">
  <!-- Generator: Adobe Illustrator 29.3.1, SVG Export Plug-In . SVG Version: 2.1.0 Build 151)  -->
  <defs>
    <style>
      .st0 {
        fill: #53ae94;
      }

      .st1 {
        fill: #fff;
      }

      .st2 {
        fill: #f0b90b;
      }
    </style>
  </defs>
  <g>
    <path class="st0" d="M453.41,87.94c249.66,0,452.06,202.41,452.06,452.06s-202.42,452.06-452.06,452.06S1.34,789.71,1.34,540,203.72,87.94,453.41,87.94"/>
    <path class="st1" d="M509.2,479.77v-67.25h153.78v-102.46H244.23v102.46h153.8v67.19c-125,5.74-218.98,30.5-218.98,60.15s94.03,54.41,218.98,60.19v215.41h111.21v-215.43c124.77-5.76,218.56-30.5,218.56-60.12s-93.79-54.37-218.56-60.12M509.24,581.79v-.05c-3.14.2-19.26,1.17-55.15,1.17-28.7,0-48.89-.81-56-1.18v.09c-110.43-4.89-192.86-24.12-192.86-47.13s82.44-42.21,192.86-47.11v75.09c7.23.5,27.92,1.72,56.47,1.72,34.29,0,51.54-1.43,54.7-1.72v-75.09c110.21,4.91,192.45,24.16,192.45,47.09s-82.28,42.19-192.45,47.1"/>
  </g>
  <g>
    <circle class="st2" cx="853.95" cy="709.82" r="224.71"/>
    <g>
      <polygon class="st1" points="795.8 685.75 829.82 651.84 836.99 644.67 854 627.67 911.9 685.75 945.6 651.84 854 560.08 762.09 651.84 795.8 685.75"/>
      <rect class="st1" x="830.11" y="685.9" width="47.86" height="47.86" transform="translate(-251.79 811.8) rotate(-45)"/>
      <polygon class="st1" points="911.9 734.1 853.98 792.02 833.64 771.69 829.9 767.94 795.8 734.1 762.09 767.81 854 859.57 945.6 767.81 911.9 734.1"/>
      <rect class="st1" x="714.05" y="686" width="47.86" height="47.86" transform="translate(-285.85 729.75) rotate(-45)"/>
      <rect class="st1" x="945.98" y="685.98" width="47.86" height="47.86" transform="translate(-217.9 893.75) rotate(-45)"/>
    </g>
  </g>
</svg>