<?xml version="1.0" encoding="UTF-8"?>
<svg id="Layer_1" xmlns="http://www.w3.org/2000/svg" version="1.1" xmlns:xlink="http://www.w3.org/1999/xlink" viewBox="0 0 1080 1080">
  <!-- Generator: Adobe Illustrator 29.3.1, SVG Export Plug-In . SVG Version: 2.1.0 Build 151)  -->
  <defs>
    <style>
      .st0 {
        fill: url(#linear-gradient2);
      }

      .st1 {
        fill: #53ae94;
      }

      .st2 {
        fill: #1baf00;
      }

      .st3 {
        fill: #fff;
      }

      .st4 {
        fill: url(#linear-gradient1);
      }

      .st5 {
        fill: none;
      }

      .st6 {
        fill: #00dadd;
      }

      .st7 {
        fill: #e4e200;
      }

      .st8 {
        fill: url(#linear-gradient3);
      }

      .st9 {
        fill: #0b02cf;
      }

      .st10 {
        fill: url(#linear-gradient);
      }
    </style>
    <linearGradient id="linear-gradient" x1="854.04" y1="444.51" x2="943.59" y2="444.51" gradientTransform="translate(0 1082) scale(1 -1)" gradientUnits="userSpaceOnUse">
      <stop offset="0" stop-color="#1baf00"/>
      <stop offset=".36" stop-color="#aad300"/>
      <stop offset=".52" stop-color="#e5e300"/>
    </linearGradient>
    <linearGradient id="linear-gradient1" x1="867.81" y1="311.69" x2="1016.34" y2="311.69" gradientTransform="translate(0 1082) scale(1 -1)" gradientUnits="userSpaceOnUse">
      <stop offset=".11" stop-color="#e4e200"/>
      <stop offset=".2" stop-color="#e5dd00"/>
      <stop offset=".29" stop-color="#e9d000"/>
      <stop offset=".38" stop-color="#efbb00"/>
      <stop offset=".48" stop-color="#f89d00"/>
      <stop offset=".53" stop-color="#ff8a00"/>
    </linearGradient>
    <linearGradient id="linear-gradient2" x1="840.26" y1="432.66" x2="691.74" y2="432.66" gradientTransform="translate(0 1082) scale(1 -1)" gradientUnits="userSpaceOnUse">
      <stop offset=".17" stop-color="#00dadd"/>
      <stop offset=".2" stop-color="#0dcfde"/>
      <stop offset=".27" stop-color="#31b2e1"/>
      <stop offset=".36" stop-color="#6a85e6"/>
      <stop offset=".46" stop-color="#b946ee"/>
      <stop offset=".52" stop-color="#eb1ff3"/>
    </linearGradient>
    <linearGradient id="linear-gradient3" x1="854.04" y1="299.84" x2="764.48" y2="299.84" gradientTransform="translate(0 1082) scale(1 -1)" gradientUnits="userSpaceOnUse">
      <stop offset="0" stop-color="#0b02cf"/>
      <stop offset=".63" stop-color="#00dadd"/>
    </linearGradient>
  </defs>
  <g>
    <path class="st1" d="M453.41,87.94c249.66,0,452.06,202.41,452.06,452.06s-202.42,452.06-452.06,452.06S1.34,789.71,1.34,540,203.72,87.94,453.41,87.94"/>
    <path class="st3" d="M509.2,479.77v-67.25h153.78v-102.46H244.23v102.46h153.8v67.19c-125,5.74-218.98,30.5-218.98,60.15s94.03,54.41,218.98,60.19v215.41h111.21v-215.43c124.77-5.76,218.56-30.5,218.56-60.12s-93.79-54.37-218.56-60.12M509.24,581.79v-.05c-3.14.2-19.26,1.17-55.15,1.17-28.7,0-48.89-.81-56-1.18v.09c-110.43-4.89-192.86-24.12-192.86-47.13s82.44-42.21,192.86-47.11v75.09c7.23.5,27.92,1.72,56.47,1.72,34.29,0,51.54-1.43,54.7-1.72v-75.09c110.21,4.91,192.45,24.16,192.45,47.09s-82.28,42.19-192.45,47.1"/>
  </g>
  <g>
    <circle class="st3" cx="854.04" cy="709.82" r="224.62"/>
    <g>
      <path class="st9" d="M727.93,698.17c-.71,7.76-.71,15.57,0,23.33l-11.66-11.66-8.13,8.13c-.3-5.42-.3-10.85,0-16.26,1.05-18.83,5.71-37.5,14-54.88l14.76,14.76c-4.84,11.76-7.84,24.1-8.97,36.58h0Z"/>
      <path class="st2" d="M943.59,661.6l34.44,34.44,2.11,2.11,11.66,11.66,13.78-13.78,13.78-13.78,13.78-13.78-89.56-89.56-8.96,8.96c-6.85-4.53-13.97-8.43-21.32-11.69-8.74-3.87-17.77-6.85-26.96-8.91-3.87-.87-7.75-1.58-11.66-2.14-4.16-.59-8.34-1-12.53-1.24-5.42-.3-10.85-.3-16.26,0-18.83,1.05-37.5,5.71-54.88,14-6.04,2.88-11.91,6.21-17.59,9.96-5.4,3.59-10.63,7.56-15.61,11.94l13.81,13.81,20.41,20.41,61.99,61.99,13.78-13.78,13.78-13.78,48.23-48.23,6.63-6.63,7.16-7.16,44.06,44.06,17.93,17.93-9.02,9.02-4.77,4.77-20.6-20.6-13.84-13.84-13.78-13.78-48.23,48.23-13.78,13.78-13.78,13.78,13.78,13.78,34.44,34.44,13.78,13.78,34.22,34.22.22.22,24.53,24.53h27.55l-38.31-38.31-2.07-2.07-14.11-14.11-18.27-18.27-13.78-13.78-34.44-34.44,48.23-48.23v.06ZM916.04,606.5l-13.78,13.78-34.44,34.44-13.78,13.78-66.49-66.49c5.87-3.63,11.98-6.73,18.24-9.31,11.76-4.84,24.1-7.84,36.58-8.97,7.76-.71,15.57-.71,23.33,0,1.27.12,2.55.25,3.82.41,11.14,1.36,22.14,4.21,32.67,8.53,6.3,2.58,12.44,5.7,18.33,9.34l-4.5,4.5h.03Z"/>
      <path class="st9" d="M936.44,806.01l-20.41-20.41-13.78-13.78-48.23-48.23-13.78,13.78-13.78,13.78-34.44,34.44-13.78,13.78-6.63,6.63-7.16,7.16-13.78-13.78-13.78-13.78-16.51-16.51-17.93-17.93,9.02-9.02,4.77-4.77,48.23,48.23,13.78-13.78,34.44-34.44,13.78-13.78,13.78-13.78-120.96-120.96h-27.55l40.36,40.36,14.11,14.11,18.27,18.27,48.23,48.23-13.78,13.78-34.44,34.44-48.23-48.23-8.13,8.13-5.65,5.65-13.78,13.78-13.78,13.78,13.78,13.78,34.44,34.44,13.78,13.78,13.78,13.78,13.78,13.78,8.96-8.96c6.85,4.53,13.97,8.43,21.32,11.69,8.74,3.87,17.77,6.85,26.96,8.91,3.87.87,7.75,1.58,11.66,2.14,4.16.59,8.34,1,12.53,1.24,5.42.3,10.85.3,16.26,0,18.83-1.05,37.5-5.71,54.88-14,6.04-2.88,11.91-6.21,17.59-9.96,5.4-3.59,10.63-7.56,15.61-11.94l-13.81-13.81v-.03ZM902.28,826.97c-11.76,4.84-24.1,7.84-36.58,8.97-7.76.71-15.57.71-23.33,0-1.27-.12-2.55-.25-3.82-.41-11.14-1.36-22.14-4.21-32.67-8.53-6.3-2.58-12.44-5.7-18.33-9.34l66.49-66.49,66.49,66.49c-5.87,3.63-11.98,6.73-18.24,9.31h-.01Z"/>
      <path class="st2" d="M999.94,717.96c-1.05,18.83-5.71,37.5-14,54.88l-14.76-14.76c4.84-11.76,7.84-24.1,8.97-36.58.71-7.76.71-15.57,0-23.33l11.66,11.66,8.13-8.13c.3,5.42.3,10.85,0,16.26h0Z"/>
      <polygon class="st10" points="854.04 668.49 943.59 578.95 943.59 606.5 854.04 696.04 854.04 668.49"/>
      <polygon class="st4" points="895.38 709.82 867.81 709.82 988.79 830.8 1016.34 830.8 895.38 709.82"/>
      <polygon class="st0" points="691.74 588.86 719.3 588.86 840.26 709.82 812.71 709.82 691.74 588.86"/>
      <polygon class="st8" points="764.48 840.72 764.48 813.15 854.04 723.61 854.04 751.16 764.48 840.72"/>
      <polygon class="st6" points="840.26 709.82 812.71 709.82 764.48 758.05 716.26 709.82 674.94 751.16 764.48 840.72 764.48 813.15 702.49 751.16 716.26 737.38 764.48 785.6 840.26 709.82"/>
      <polygon class="st7" points="943.59 578.95 943.59 606.5 1005.6 668.49 991.81 682.27 943.59 634.05 867.81 709.82 895.38 709.82 943.59 661.6 991.81 709.82 1033.15 668.49 943.59 578.95"/>
      <path class="st5" d="M727.93,698.17c-.71,7.76-.71,15.57,0,23.33l-11.66-11.66-8.13,8.13c-.3-5.42-.3-10.85,0-16.26,1.05-18.83,5.71-37.5,14-54.88l14.76,14.76c-4.84,11.76-7.84,24.1-8.97,36.58h0Z"/>
      <path class="st5" d="M936.44,806.01l-20.41-20.41-13.78-13.78-48.23-48.23-13.78,13.78-13.78,13.78-34.44,34.44-13.78,13.78-6.63,6.63-7.16,7.16-13.78-13.78-13.78-13.78-16.51-16.51-17.93-17.93,9.02-9.02,4.77-4.77,48.23,48.23,13.78-13.78,34.44-34.44,13.78-13.78,13.78-13.78-120.96-120.96h-27.55l40.36,40.36,14.11,14.11,18.27,18.27,48.23,48.23-13.78,13.78-34.44,34.44-48.23-48.23-8.13,8.13-5.65,5.65-13.78,13.78-13.78,13.78,13.78,13.78,34.44,34.44,13.78,13.78,13.78,13.78,13.78,13.78,8.96-8.96c6.85,4.53,13.97,8.43,21.32,11.69,8.74,3.87,17.77,6.85,26.96,8.91,3.87.87,7.75,1.58,11.66,2.14,4.16.59,8.34,1,12.53,1.24,5.42.3,10.85.3,16.26,0,18.83-1.05,37.5-5.71,54.88-14,6.04-2.88,11.91-6.21,17.59-9.96,5.4-3.59,10.63-7.56,15.61-11.94l-13.81-13.81v-.03ZM902.28,826.97c-11.76,4.84-24.1,7.84-36.58,8.97-7.76.71-15.57.71-23.33,0-1.27-.12-2.55-.25-3.82-.41-11.14-1.36-22.14-4.21-32.67-8.53-6.3-2.58-12.44-5.7-18.33-9.34l66.49-66.49,66.49,66.49c-5.87,3.63-11.98,6.73-18.24,9.31h-.01Z"/>
      <path class="st5" d="M999.94,717.96c-1.05,18.83-5.71,37.5-14,54.88l-14.76-14.76c4.84-11.76,7.84-24.1,8.97-36.58.71-7.76.71-15.57,0-23.33l11.66,11.66,8.13-8.13c.3,5.42.3,10.85,0,16.26h0Z"/>
      <path class="st5" d="M943.59,661.6l34.44,34.44,2.11,2.11,11.66,11.66,13.78-13.78,13.78-13.78,13.78-13.78-89.56-89.56-8.96,8.96c-6.85-4.53-13.97-8.43-21.32-11.69-8.74-3.87-17.77-6.85-26.96-8.91-3.87-.87-7.75-1.58-11.66-2.14-4.16-.59-8.34-1-12.53-1.24-5.42-.3-10.85-.3-16.26,0-18.83,1.05-37.5,5.71-54.88,14-6.04,2.88-11.91,6.21-17.59,9.96-5.4,3.59-10.63,7.56-15.61,11.94l13.81,13.81,20.41,20.41,61.99,61.99,13.78-13.78,13.78-13.78,48.23-48.23,6.63-6.63,7.16-7.16,44.06,44.06,17.93,17.93-9.02,9.02-4.77,4.77-20.6-20.6-13.84-13.84-13.78-13.78-48.23,48.23-13.78,13.78-13.78,13.78,13.78,13.78,34.44,34.44,13.78,13.78,34.22,34.22.22.22,24.53,24.53h27.55l-38.31-38.31-2.07-2.07-14.11-14.11-18.27-18.27-13.78-13.78-34.44-34.44,48.23-48.23v.06ZM916.04,606.5l-13.78,13.78-34.44,34.44-13.78,13.78-66.49-66.49c5.87-3.63,11.98-6.73,18.24-9.31,11.76-4.84,24.1-7.84,36.58-8.97,7.76-.71,15.57-.71,23.33,0,1.27.12,2.55.25,3.82.41,11.14,1.36,22.14,4.21,32.67,8.53,6.3,2.58,12.44,5.7,18.33,9.34l-4.5,4.5h.03Z"/>
    </g>
  </g>
</svg>