<?xml version="1.0" encoding="UTF-8"?>
<svg id="Layer_1" xmlns="http://www.w3.org/2000/svg" version="1.1" viewBox="0 0 1080 1080">
  <!-- Generator: Adobe Illustrator 29.3.1, SVG Export Plug-In . SVG Version: 2.1.0 Build 151)  -->
  <defs>
    <style>
      .st0 {
        fill: #313131;
      }

      .st1 {
        fill: #53ae94;
      }

      .st2 {
        fill: #fff;
      }

      .st3 {
        fill: #131313;
      }

      .st4 {
        fill: #363636;
      }

      .st5 {
        fill: #888;
      }
    </style>
  </defs>
  <g>
    <path class="st1" d="M540,133.21c224.65,0,406.79,182.14,406.79,406.79s-182.14,406.79-406.79,406.79-406.79-182.09-406.79-406.79,182.11-406.79,406.79-406.79"/>
    <path class="st2" d="M590.21,485.8v-60.51h138.38v-92.2h-376.82v92.2h138.4v60.46c-112.48,5.17-197.05,27.44-197.05,54.13s84.61,48.96,197.05,54.16v193.84h100.07v-193.85c112.28-5.18,196.67-27.44,196.67-54.1s-84.4-48.92-196.67-54.1M590.24,577.6v-.05c-2.82.18-17.33,1.05-49.63,1.05-25.82,0-43.99-.73-50.39-1.07v.08c-99.37-4.4-173.54-21.71-173.54-42.41s74.18-37.99,173.54-42.4v67.57c6.51.45,25.12,1.55,50.82,1.55,30.86,0,46.37-1.28,49.22-1.55v-67.57c99.18,4.42,173.18,21.74,173.18,42.37s-74.04,37.96-173.18,42.38"/>
  </g>
  <g>
    <circle class="st2" cx="863" cy="692.81" r="152.21"/>
    <g>
      <polygon class="st5" points="863 580.29 793.8 696.24 863 664.62 863 580.29"/>
      <polygon class="st5" points="863 805.32 863 748.03 793.8 706.78 863 805.32"/>
      <polygon class="st4" points="793.8 696.24 863 664.62 863 736.57 793.8 696.24"/>
      <polygon class="st0" points="863 580.29 932.21 696.24 863 664.62 863 580.29"/>
      <polygon class="st0" points="863 805.32 863 748.03 932.21 706.78 863 805.32"/>
      <polygon class="st3" points="932.21 696.24 863 664.62 863 736.57 932.21 696.24"/>
    </g>
  </g>
</svg>