<svg width="14" height="15" viewBox="0 0 14 15" fill="none" xmlns="http://www.w3.org/2000/svg">
<path d="M9.9165 2.44832C10.7963 2.95632 11.5282 3.68529 12.0397 4.56308C12.5512 5.44087 12.8246 6.43702 12.8328 7.45294C12.841 8.46885 12.5838 9.46929 12.0865 10.3552C11.5893 11.2412 10.8692 11.9819 9.99773 12.504C9.12623 13.0262 8.13347 13.3116 7.11773 13.3322C6.10199 13.3527 5.09849 13.1077 4.20658 12.6212C3.31466 12.1348 2.56526 11.4238 2.03256 10.5587C1.49986 9.69362 1.20233 8.7044 1.16942 7.68899L1.1665 7.49999L1.16942 7.31099C1.20209 6.30357 1.49524 5.3218 2.02029 4.4614C2.54535 3.601 3.28439 2.89134 4.16536 2.40159C5.04633 1.91184 6.03917 1.65872 7.04709 1.66691C8.05501 1.6751 9.04361 1.94432 9.9165 2.44832ZM6.99984 3.99999C6.85696 4.00001 6.71906 4.05246 6.61229 4.14741C6.50552 4.24235 6.4373 4.37317 6.42059 4.51507L6.4165 4.58332V7.49999L6.42175 7.5764C6.43505 7.67761 6.47468 7.77356 6.53667 7.85465L6.58742 7.91299L8.33742 9.66299L8.39225 9.71082C8.49455 9.79019 8.62036 9.83327 8.74984 9.83327C8.87932 9.83327 9.00512 9.79019 9.10742 9.71082L9.16225 9.6624L9.21067 9.60757C9.29004 9.50527 9.33312 9.37947 9.33312 9.24999C9.33312 9.12051 9.29004 8.99471 9.21067 8.8924L9.16225 8.83757L7.58317 7.2579V4.58332L7.57909 4.51507C7.56237 4.37317 7.49416 4.24235 7.38739 4.14741C7.28062 4.05246 7.14271 4.00001 6.99984 3.99999Z" fill="#8A898E"/>
</svg>
