<svg width="14" height="15" viewBox="0 0 14 15" fill="none" xmlns="http://www.w3.org/2000/svg">
<path d="M6.99984 1.66666C10.2216 1.66666 12.8332 4.27824 12.8332 7.49999C12.8332 10.7217 10.2216 13.3333 6.99984 13.3333C3.77809 13.3333 1.1665 10.7217 1.1665 7.49999C1.1665 4.27824 3.77809 1.66666 6.99984 1.66666ZM6.99984 9.83332C6.84513 9.83332 6.69675 9.89478 6.58736 10.0042C6.47796 10.1136 6.4165 10.2619 6.4165 10.4167C6.4165 10.5714 6.47796 10.7197 6.58736 10.8291C6.69675 10.9385 6.84513 11 6.99984 11C7.15455 11 7.30292 10.9385 7.41232 10.8291C7.52171 10.7197 7.58317 10.5714 7.58317 10.4167C7.58317 10.2619 7.52171 10.1136 7.41232 10.0042C7.30292 9.89478 7.15455 9.83332 6.99984 9.83332ZM6.99984 4.29166C6.43902 4.29166 5.90116 4.51444 5.5046 4.911C5.10804 5.30757 4.88525 5.84542 4.88525 6.40624C4.88525 6.56095 4.94671 6.70932 5.05611 6.81872C5.1655 6.92812 5.31388 6.98957 5.46859 6.98957C5.6233 6.98957 5.77167 6.92812 5.88107 6.81872C5.99046 6.70932 6.05192 6.56095 6.05192 6.40624C6.05211 6.23418 6.09914 6.06541 6.18794 5.91804C6.27675 5.77067 6.404 5.65025 6.55604 5.56969C6.70808 5.48914 6.87918 5.45148 7.05099 5.46077C7.2228 5.47005 7.38885 5.52593 7.53132 5.6224C7.67379 5.71887 7.78732 5.8523 7.85973 6.00839C7.93214 6.16447 7.9607 6.33732 7.94235 6.5084C7.924 6.67948 7.85942 6.84234 7.75556 6.97952C7.65169 7.1167 7.51245 7.22301 7.35275 7.28707C6.95842 7.44457 6.4165 7.84824 6.4165 8.52082V8.66666C6.4165 8.82137 6.47796 8.96974 6.58736 9.07914C6.69675 9.18853 6.84513 9.24999 6.99984 9.24999C7.15455 9.24999 7.30292 9.18853 7.41232 9.07914C7.52171 8.96974 7.58317 8.82137 7.58317 8.66666C7.58317 8.52432 7.61234 8.45316 7.73542 8.39249L7.78617 8.36916C8.24165 8.18593 8.6192 7.84996 8.8541 7.41886C9.089 6.98775 9.16663 6.48836 9.07366 6.0063C8.98069 5.52423 8.72293 5.08952 8.34456 4.77668C7.96619 4.46384 7.49079 4.29237 6.99984 4.29166Z" fill="#BCBAC0"/>
</svg>
